<?xml version="1.0" encoding="utf-8"?>
<!-- Generator: Adobe Illustrator 19.1.0, SVG Export Plug-In . SVG Version: 6.00 Build 0)  -->
<svg version="1.1" id="Layer_1" xmlns="http://www.w3.org/2000/svg" xmlns:xlink="http://www.w3.org/1999/xlink" x="0px" y="0px"
	 viewBox="0 0 421.4 367.7" style="enable-background:new 0 0 421.4 367.7;" xml:space="preserve">
<style type="text/css">
	.st0{fill:#DFE5F4;}
	.st1{fill:#233F95;}
	.st2{fill:#B2C1E1;}
	.st3{fill:#F2F5FB;}
	.st4{fill:#FFFFFF;}
	.st5{fill:#7D94CB;}
	.st6{fill:#CAD4ED;}
</style>
<rect x="281.3" y="131.4" class="st0" width="125.7" height="22.9"/>
<path class="st1" d="M406.4,132v21.7H281.9V132H406.4 M407.6,130.8h-1.2H281.9h-1.2v1.2v21.7v1.2h1.2h124.5h1.2v-1.2V132V130.8z"/>
<rect x="281.9" y="132" class="st2" width="124.5" height="5.9"/>
<path class="st3" d="M271.2,132.7c-1.9,0-3.5-1.6-3.5-3.5V74.5c0-3.7,3-6.7,6.7-6.7h139.5c3.7,0,6.7,3,6.7,6.7v54.8
	c0,1.9-1.6,3.5-3.5,3.5H271.2z"/>
<path class="st1" d="M413.9,68.5c3.3,0,5.9,2.7,5.9,5.9v54.8c0,1.5-1.2,2.7-2.7,2.7H271.2c-1.5,0-2.7-1.2-2.7-2.7V74.5
	c0-3.3,2.7-5.9,5.9-5.9H413.9 M413.9,67H274.4c-4.1,0-7.5,3.3-7.5,7.5v54.8c0,2.4,1.9,4.3,4.3,4.3h145.9c2.4,0,4.3-1.9,4.3-4.3V74.5
	C421.4,70.3,418,67,413.9,67z"/>
<path class="st4" d="M413.9,68.5H274.4c-3.3,0-5.9,2.7-5.9,5.9V76c0-3.3,2.7-5.9,5.9-5.9h139.5c3.3,0,5.9,2.7,5.9,5.9v-1.5
	C419.8,71.2,417.2,68.5,413.9,68.5z"/>
<path class="st0" d="M277.7,346.7c-5.5,0-10-4.5-10-10V164.5c0-6.4,5.2-11.6,11.6-11.6H409c6.4,0,11.6,5.2,11.6,11.6v172.2
	c0,5.5-4.5,10-10,10H277.7z"/>
<path class="st1" d="M409,153.7c6,0,10.8,4.8,10.8,10.8v172.2c0,5.1-4.1,9.2-9.2,9.2H277.7c-5.1,0-9.2-4.1-9.2-9.2V164.5
	c0-6,4.8-10.8,10.8-10.8H409 M409,152.2H279.3c-6.8,0-12.3,5.5-12.3,12.3v172.2c0,5.9,4.8,10.8,10.8,10.8h132.9
	c5.9,0,10.8-4.8,10.8-10.8V164.5C421.4,157.7,415.8,152.2,409,152.2z"/>
<path class="st4" d="M409,153.7H279.3c-6,0-10.8,4.8-10.8,10.8v1.5c0-6,4.8-10.8,10.8-10.8H409c6,0,10.8,4.8,10.8,10.8v-1.5
	C419.8,158.5,415,153.7,409,153.7z"/>
<path class="st2" d="M277.5,131.2c-1.7,0-3.2-1.4-3.2-3.2V77.7c0-1.7,1.4-3.2,3.2-3.2c1.8,0,3.2,1.4,3.2,3.2v50.4
	C280.7,129.8,279.3,131.2,277.5,131.2z"/>
<path class="st1" d="M277.5,75.3c1.3,0,2.4,1.1,2.4,2.4v50.4c0,1.3-1.1,2.4-2.4,2.4c-1.3,0-2.4-1.1-2.4-2.4V77.7
	C275.1,76.3,276.2,75.3,277.5,75.3 M277.5,73.7c-2.2,0-3.9,1.8-3.9,3.9v50.4c0,2.2,1.8,3.9,3.9,3.9c2.2,0,3.9-1.8,3.9-3.9V77.7
	C281.4,75.5,279.7,73.7,277.5,73.7z"/>
<path class="st5" d="M277.5,75.3c-1.3,0-2.4,1.1-2.4,2.4v4.4c0-1.3,1.1-2.4,2.4-2.4c1.3,0,2.4,1.1,2.4,2.4v-4.4
	C279.9,76.3,278.8,75.3,277.5,75.3z"/>
<path class="st0" d="M294.2,131.2c-1.7,0-3.2-1.4-3.2-3.2V77.7c0-1.7,1.4-3.2,3.2-3.2c1.8,0,3.2,1.4,3.2,3.2v50.4
	C297.3,129.8,295.9,131.2,294.2,131.2z"/>
<path class="st1" d="M294.2,75.3c1.3,0,2.4,1.1,2.4,2.4v50.4c0,1.3-1.1,2.4-2.4,2.4c-1.3,0-2.4-1.1-2.4-2.4V77.7
	C291.8,76.3,292.8,75.3,294.2,75.3 M294.2,73.7c-2.2,0-3.9,1.8-3.9,3.9v50.4c0,2.2,1.8,3.9,3.9,3.9c2.2,0,3.9-1.8,3.9-3.9V77.7
	C298.1,75.5,296.3,73.7,294.2,73.7z"/>
<path class="st0" d="M310.8,131.2c-1.7,0-3.2-1.4-3.2-3.2V77.7c0-1.7,1.4-3.2,3.2-3.2c1.7,0,3.2,1.4,3.2,3.2v50.4
	C314,129.8,312.6,131.2,310.8,131.2z"/>
<path class="st1" d="M310.8,75.3c1.3,0,2.4,1.1,2.4,2.4v50.4c0,1.3-1.1,2.4-2.4,2.4s-2.4-1.1-2.4-2.4V77.7
	C308.4,76.3,309.5,75.3,310.8,75.3 M310.8,73.7c-2.2,0-3.9,1.8-3.9,3.9v50.4c0,2.2,1.8,3.9,3.9,3.9c2.2,0,3.9-1.8,3.9-3.9V77.7
	C314.8,75.5,313,73.7,310.8,73.7z"/>
<path class="st0" d="M327.5,131.2c-1.7,0-3.2-1.4-3.2-3.2V77.7c0-1.7,1.4-3.2,3.2-3.2c1.7,0,3.2,1.4,3.2,3.2v50.4
	C330.7,129.8,329.2,131.2,327.5,131.2z"/>
<path class="st1" d="M327.5,75.3c1.3,0,2.4,1.1,2.4,2.4v50.4c0,1.3-1.1,2.4-2.4,2.4s-2.4-1.1-2.4-2.4V77.7
	C325.1,76.3,326.2,75.3,327.5,75.3 M327.5,73.7c-2.2,0-3.9,1.8-3.9,3.9v50.4c0,2.2,1.8,3.9,3.9,3.9s3.9-1.8,3.9-3.9V77.7
	C331.4,75.5,329.7,73.7,327.5,73.7z"/>
<path class="st0" d="M344.1,131.2c-1.8,0-3.2-1.4-3.2-3.2V77.7c0-1.7,1.4-3.2,3.2-3.2c1.8,0,3.2,1.4,3.2,3.2v50.4
	C347.3,129.8,345.9,131.2,344.1,131.2z"/>
<path class="st1" d="M344.1,75.3c1.3,0,2.4,1.1,2.4,2.4v50.4c0,1.3-1.1,2.4-2.4,2.4c-1.3,0-2.4-1.1-2.4-2.4V77.7
	C341.7,76.3,342.8,75.3,344.1,75.3 M344.1,73.7c-2.2,0-3.9,1.8-3.9,3.9v50.4c0,2.2,1.8,3.9,3.9,3.9c2.2,0,3.9-1.8,3.9-3.9V77.7
	C348.1,75.5,346.3,73.7,344.1,73.7z"/>
<path class="st0" d="M360.8,131.2c-1.7,0-3.2-1.4-3.2-3.2V77.7c0-1.7,1.4-3.2,3.2-3.2c1.7,0,3.2,1.4,3.2,3.2v50.4
	C364,129.8,362.5,131.2,360.8,131.2z"/>
<path class="st1" d="M360.8,75.3c1.3,0,2.4,1.1,2.4,2.4v50.4c0,1.3-1.1,2.4-2.4,2.4s-2.4-1.1-2.4-2.4V77.7
	C358.4,76.3,359.5,75.3,360.8,75.3 M360.8,73.7c-2.2,0-3.9,1.8-3.9,3.9v50.4c0,2.2,1.8,3.9,3.9,3.9c2.2,0,3.9-1.8,3.9-3.9V77.7
	C364.7,75.5,363,73.7,360.8,73.7z"/>
<path class="st0" d="M377.5,131.2c-1.7,0-3.2-1.4-3.2-3.2V77.7c0-1.7,1.4-3.2,3.2-3.2c1.7,0,3.2,1.4,3.2,3.2v50.4
	C380.6,129.8,379.2,131.2,377.5,131.2z"/>
<path class="st1" d="M377.5,75.3c1.3,0,2.4,1.1,2.4,2.4v50.4c0,1.3-1.1,2.4-2.4,2.4c-1.3,0-2.4-1.1-2.4-2.4V77.7
	C375,76.3,376.1,75.3,377.5,75.3 M377.5,73.7c-2.2,0-3.9,1.8-3.9,3.9v50.4c0,2.2,1.8,3.9,3.9,3.9c2.2,0,3.9-1.8,3.9-3.9V77.7
	C381.4,75.5,379.6,73.7,377.5,73.7z"/>
<path class="st0" d="M394.1,131.2c-1.8,0-3.2-1.4-3.2-3.2V77.7c0-1.7,1.4-3.2,3.2-3.2c1.7,0,3.2,1.4,3.2,3.2v50.4
	C397.3,129.8,395.9,131.2,394.1,131.2z"/>
<path class="st1" d="M394.1,75.3c1.3,0,2.4,1.1,2.4,2.4v50.4c0,1.3-1.1,2.4-2.4,2.4c-1.3,0-2.4-1.1-2.4-2.4V77.7
	C391.7,76.3,392.8,75.3,394.1,75.3 M394.1,73.7c-2.2,0-3.9,1.8-3.9,3.9v50.4c0,2.2,1.8,3.9,3.9,3.9c2.2,0,3.9-1.8,3.9-3.9V77.7
	C398,75.5,396.3,73.7,394.1,73.7z"/>
<path class="st0" d="M410.8,131.2c-1.8,0-3.2-1.4-3.2-3.2V77.7c0-1.7,1.4-3.2,3.2-3.2c1.8,0,3.2,1.4,3.2,3.2v50.4
	C413.9,129.8,412.5,131.2,410.8,131.2z"/>
<path class="st1" d="M410.8,75.3c1.3,0,2.4,1.1,2.4,2.4v50.4c0,1.3-1.1,2.4-2.4,2.4s-2.4-1.1-2.4-2.4V77.7
	C408.4,76.3,409.4,75.3,410.8,75.3 M410.8,73.7c-2.2,0-3.9,1.8-3.9,3.9v50.4c0,2.2,1.8,3.9,3.9,3.9c2.2,0,3.9-1.8,3.9-3.9V77.7
	C414.7,75.5,412.9,73.7,410.8,73.7z"/>
<path class="st5" d="M294.2,75.3c-1.3,0-2.4,1.1-2.4,2.4v4.4c0-1.3,1.1-2.4,2.4-2.4c1.3,0,2.4,1.1,2.4,2.4v-4.4
	C296.6,76.3,295.5,75.3,294.2,75.3z"/>
<path class="st2" d="M310.8,75.3c-1.3,0-2.4,1.1-2.4,2.4v4.4c0-1.3,1.1-2.4,2.4-2.4c1.3,0,2.4,1.1,2.4,2.4v-4.4
	C313.2,76.3,312.2,75.3,310.8,75.3z"/>
<path class="st2" d="M327.5,75.3c-1.3,0-2.4,1.1-2.4,2.4v4.4c0-1.3,1.1-2.4,2.4-2.4c1.3,0,2.4,1.1,2.4,2.4v-4.4
	C329.9,76.3,328.8,75.3,327.5,75.3z"/>
<path class="st2" d="M344.1,75.3c-1.3,0-2.4,1.1-2.4,2.4v4.4c0-1.3,1.1-2.4,2.4-2.4c1.3,0,2.4,1.1,2.4,2.4v-4.4
	C346.6,76.3,345.5,75.3,344.1,75.3z"/>
<path class="st2" d="M360.8,75.3c-1.3,0-2.4,1.1-2.4,2.4v4.4c0-1.3,1.1-2.4,2.4-2.4c1.3,0,2.4,1.1,2.4,2.4v-4.4
	C363.2,76.3,362.1,75.3,360.8,75.3z"/>
<path class="st2" d="M377.5,75.3c-1.3,0-2.4,1.1-2.4,2.4v4.4c0-1.3,1.1-2.4,2.4-2.4c1.3,0,2.4,1.1,2.4,2.4v-4.4
	C379.9,76.3,378.8,75.3,377.5,75.3z"/>
<path class="st2" d="M394.1,75.3c-1.3,0-2.4,1.1-2.4,2.4v4.4c0-1.3,1.1-2.4,2.4-2.4c1.3,0,2.4,1.1,2.4,2.4v-4.4
	C396.5,76.3,395.4,75.3,394.1,75.3z"/>
<path class="st2" d="M410.8,75.3c-1.3,0-2.4,1.1-2.4,2.4v4.4c0-1.3,1.1-2.4,2.4-2.4c1.3,0,2.4,1.1,2.4,2.4v-4.4
	C413.2,76.3,412.1,75.3,410.8,75.3z"/>
<path class="st5" d="M279.9,110.9c0,1.3-1.1,2.4-2.4,2.4c-1.3,0-2.4-1.1-2.4-2.4v5.7h4.8V110.9z"/>
<path class="st5" d="M296.6,110.9c0,1.3-1.1,2.4-2.4,2.4c-1.3,0-2.4-1.1-2.4-2.4v5.7h4.8V110.9z"/>
<path class="st2" d="M313.2,110.9c0,1.3-1.1,2.4-2.4,2.4c-1.3,0-2.4-1.1-2.4-2.4v5.7h4.8V110.9z"/>
<path class="st2" d="M329.9,110.9c0,1.3-1.1,2.4-2.4,2.4c-1.3,0-2.4-1.1-2.4-2.4v5.7h4.8V110.9z"/>
<path class="st2" d="M346.6,110.9c0,1.3-1.1,2.4-2.4,2.4c-1.3,0-2.4-1.1-2.4-2.4v5.7h4.8V110.9z"/>
<path class="st2" d="M363.2,110.9c0,1.3-1.1,2.4-2.4,2.4c-1.3,0-2.4-1.1-2.4-2.4v5.7h4.8V110.9z"/>
<path class="st2" d="M379.9,110.9c0,1.3-1.1,2.4-2.4,2.4c-1.3,0-2.4-1.1-2.4-2.4v5.7h4.8V110.9z"/>
<path class="st2" d="M396.5,110.9c0,1.3-1.1,2.4-2.4,2.4c-1.3,0-2.4-1.1-2.4-2.4v5.7h4.8V110.9z"/>
<path class="st2" d="M413.2,110.9c0,1.3-1.1,2.4-2.4,2.4c-1.3,0-2.4-1.1-2.4-2.4v5.7h4.8V110.9z"/>
<path class="st3" d="M271.2,132.7c-1.9,0-3.5-1.6-3.5-3.5v-13.4h152.9v13.4c0,1.9-1.6,3.5-3.5,3.5H271.2z"/>
<path class="st1" d="M419.8,116.6v12.6c0,1.5-1.2,2.7-2.7,2.7H271.2c-1.5,0-2.7-1.2-2.7-2.7v-12.6H419.8 M421.4,115.1h-1.5H268.5
	h-1.5v1.5v12.6c0,2.4,1.9,4.3,4.3,4.3h145.9c2.4,0,4.3-1.9,4.3-4.3v-12.6V115.1z"/>
<rect x="267.7" y="185" class="st2" width="152.9" height="129.3"/>
<path class="st1" d="M419.8,185.7v127.7H268.5V185.7H419.8 M421.4,184.2h-1.5H268.5h-1.5v1.5v127.7v1.5h1.5h151.4h1.5v-1.5V185.7
	V184.2z"/>
<path class="st6" d="M283.7,164.5c0-6,4.8-10.8,10.8-10.8h-15.3c-6,0-10.8,4.8-10.8,10.8v19.7h15.3V164.5z"/>
<path class="st6" d="M268.5,330v6.7c0,5.1,4.1,9.2,9.2,9.2H293c-5.1,0-9.2-4.1-9.2-9.2V330H268.5z"/>
<rect x="268.5" y="185.7" class="st5" width="15.3" height="127.7"/>
<rect x="267.7" y="324" class="st2" width="152.9" height="5.3"/>
<path class="st1" d="M419.8,324.8v3.8H268.5v-3.8H419.8 M421.4,323.2h-1.5H268.5h-1.5v1.5v3.8v1.5h1.5h151.4h1.5v-1.5v-3.8V323.2z"
	/>
<rect x="268.5" y="315" class="st6" width="15.3" height="8.2"/>
<rect x="268.5" y="324.8" class="st5" width="15.3" height="3.8"/>
<path class="st4" d="M412.2,164.5c0-6-4.8-10.8-10.8-10.8h7.6c6,0,10.8,4.8,10.8,10.8v19.7h-7.6V164.5z"/>
<path class="st4" d="M419.8,330v6.7c0,5.1-4.1,9.2-9.2,9.2H403c5.1,0,9.2-4.1,9.2-9.2V330H419.8z"/>
<rect x="412.2" y="185.7" class="st0" width="7.6" height="127.7"/>
<rect x="412.2" y="315" class="st4" width="7.6" height="8.2"/>
<rect x="412.2" y="324.8" class="st0" width="7.6" height="3.8"/>
<rect x="268.5" y="226.6" class="st3" width="151.4" height="46.1"/>
<rect x="268.5" y="226.6" class="st2" width="15.3" height="46.1"/>
<rect x="412.2" y="226.6" class="st4" width="7.6" height="46.1"/>
<rect x="14.4" y="131.4" class="st0" width="125.7" height="22.9"/>
<path class="st1" d="M139.5,132v21.7H15V132H139.5 M140.7,130.8h-1.2H15h-1.2v1.2v21.7v1.2H15h124.5h1.2v-1.2V132V130.8z"/>
<rect x="15" y="132" class="st2" width="124.5" height="5.9"/>
<path class="st3" d="M4.3,132.7c-1.9,0-3.5-1.6-3.5-3.5V74.5c0-3.7,3-6.7,6.7-6.7H147c3.7,0,6.7,3,6.7,6.7v54.8
	c0,1.9-1.6,3.5-3.5,3.5H4.3z"/>
<path class="st1" d="M147,68.5c3.3,0,5.9,2.7,5.9,5.9v54.8c0,1.5-1.2,2.7-2.7,2.7H4.3c-1.5,0-2.7-1.2-2.7-2.7V74.5
	c0-3.3,2.7-5.9,5.9-5.9H147 M147,67H7.5C3.3,67,0,70.3,0,74.5v54.8c0,2.4,1.9,4.3,4.3,4.3h145.9c2.4,0,4.3-1.9,4.3-4.3V74.5
	C154.4,70.3,151.1,67,147,67z"/>
<path class="st4" d="M147,68.5H7.5c-3.3,0-5.9,2.7-5.9,5.9V76c0-3.3,2.7-5.9,5.9-5.9H147c3.3,0,5.9,2.7,5.9,5.9v-1.5
	C152.9,71.2,150.2,68.5,147,68.5z"/>
<path class="st0" d="M10.8,346.7c-5.5,0-10-4.5-10-10V164.5c0-6.4,5.2-11.6,11.6-11.6h129.8c6.4,0,11.6,5.2,11.6,11.6v172.2
	c0,5.5-4.5,10-10,10H10.8z"/>
<path class="st1" d="M142.1,153.7c6,0,10.8,4.8,10.8,10.8v172.2c0,5.1-4.1,9.2-9.2,9.2H10.8c-5.1,0-9.2-4.1-9.2-9.2V164.5
	c0-6,4.8-10.8,10.8-10.8H142.1 M142.1,152.2H12.3c-6.8,0-12.3,5.5-12.3,12.3v172.2c0,5.9,4.8,10.8,10.8,10.8h132.9
	c5.9,0,10.8-4.8,10.8-10.8V164.5C154.4,157.7,148.9,152.2,142.1,152.2z"/>
<path class="st4" d="M142.1,153.7H12.3c-6,0-10.8,4.8-10.8,10.8v1.5c0-6,4.8-10.8,10.8-10.8h129.8c6,0,10.8,4.8,10.8,10.8v-1.5
	C152.9,158.5,148.1,153.7,142.1,153.7z"/>
<path class="st0" d="M10.6,131.2c-1.7,0-3.2-1.4-3.2-3.2V77.7c0-1.7,1.4-3.2,3.2-3.2c1.7,0,3.2,1.4,3.2,3.2v50.4
	C13.8,129.8,12.3,131.2,10.6,131.2z"/>
<path class="st1" d="M10.6,75.3c1.3,0,2.4,1.1,2.4,2.4v50.4c0,1.3-1.1,2.4-2.4,2.4c-1.3,0-2.4-1.1-2.4-2.4V77.7
	C8.2,76.3,9.3,75.3,10.6,75.3 M10.6,73.7c-2.2,0-3.9,1.8-3.9,3.9v50.4c0,2.2,1.8,3.9,3.9,3.9c2.2,0,3.9-1.8,3.9-3.9V77.7
	C14.5,75.5,12.8,73.7,10.6,73.7z"/>
<path class="st2" d="M10.6,75.3c-1.3,0-2.4,1.1-2.4,2.4v4.4c0-1.3,1.1-2.4,2.4-2.4c1.3,0,2.4,1.1,2.4,2.4v-4.4
	C13,76.3,11.9,75.3,10.6,75.3z"/>
<path class="st0" d="M27.2,131.2c-1.7,0-3.2-1.4-3.2-3.2V77.7c0-1.7,1.4-3.2,3.2-3.2c1.8,0,3.2,1.4,3.2,3.2v50.4
	C30.4,129.8,29,131.2,27.2,131.2z"/>
<path class="st1" d="M27.2,75.3c1.3,0,2.4,1.1,2.4,2.4v50.4c0,1.3-1.1,2.4-2.4,2.4c-1.3,0-2.4-1.1-2.4-2.4V77.7
	C24.8,76.3,25.9,75.3,27.2,75.3 M27.2,73.7c-2.2,0-3.9,1.8-3.9,3.9v50.4c0,2.2,1.8,3.9,3.9,3.9c2.2,0,3.9-1.8,3.9-3.9V77.7
	C31.2,75.5,29.4,73.7,27.2,73.7z"/>
<path class="st0" d="M43.9,131.2c-1.7,0-3.2-1.4-3.2-3.2V77.7c0-1.7,1.4-3.2,3.2-3.2s3.2,1.4,3.2,3.2v50.4
	C47.1,129.8,45.6,131.2,43.9,131.2z"/>
<path class="st1" d="M43.9,75.3c1.3,0,2.4,1.1,2.4,2.4v50.4c0,1.3-1.1,2.4-2.4,2.4s-2.4-1.1-2.4-2.4V77.7
	C41.5,76.3,42.6,75.3,43.9,75.3 M43.9,73.7c-2.2,0-3.9,1.8-3.9,3.9v50.4c0,2.2,1.8,3.9,3.9,3.9c2.2,0,3.9-1.8,3.9-3.9V77.7
	C47.8,75.5,46.1,73.7,43.9,73.7z"/>
<path class="st0" d="M60.6,131.2c-1.7,0-3.2-1.4-3.2-3.2V77.7c0-1.7,1.4-3.2,3.2-3.2c1.7,0,3.2,1.4,3.2,3.2v50.4
	C63.7,129.8,62.3,131.2,60.6,131.2z"/>
<path class="st1" d="M60.6,75.3c1.3,0,2.4,1.1,2.4,2.4v50.4c0,1.3-1.1,2.4-2.4,2.4s-2.4-1.1-2.4-2.4V77.7
	C58.1,76.3,59.2,75.3,60.6,75.3 M60.6,73.7c-2.2,0-3.9,1.8-3.9,3.9v50.4c0,2.2,1.8,3.9,3.9,3.9s3.9-1.8,3.9-3.9V77.7
	C64.5,75.5,62.7,73.7,60.6,73.7z"/>
<path class="st0" d="M77.2,131.2c-1.8,0-3.2-1.4-3.2-3.2V77.7c0-1.7,1.4-3.2,3.2-3.2c1.7,0,3.2,1.4,3.2,3.2v50.4
	C80.4,129.8,79,131.2,77.2,131.2z"/>
<path class="st1" d="M77.2,75.3c1.3,0,2.4,1.1,2.4,2.4v50.4c0,1.3-1.1,2.4-2.4,2.4c-1.3,0-2.4-1.1-2.4-2.4V77.7
	C74.8,76.3,75.9,75.3,77.2,75.3 M77.2,73.7c-2.2,0-3.9,1.8-3.9,3.9v50.4c0,2.2,1.8,3.9,3.9,3.9c2.2,0,3.9-1.8,3.9-3.9V77.7
	C81.2,75.5,79.4,73.7,77.2,73.7z"/>
<path class="st0" d="M93.9,131.2c-1.7,0-3.2-1.4-3.2-3.2V77.7c0-1.7,1.4-3.2,3.2-3.2s3.2,1.4,3.2,3.2v50.4
	C97,129.8,95.6,131.2,93.9,131.2z"/>
<path class="st1" d="M93.9,75.3c1.3,0,2.4,1.1,2.4,2.4v50.4c0,1.3-1.1,2.4-2.4,2.4s-2.4-1.1-2.4-2.4V77.7
	C91.5,76.3,92.5,75.3,93.9,75.3 M93.9,73.7c-2.2,0-3.9,1.8-3.9,3.9v50.4c0,2.2,1.8,3.9,3.9,3.9c2.2,0,3.9-1.8,3.9-3.9V77.7
	C97.8,75.5,96,73.7,93.9,73.7z"/>
<path class="st0" d="M110.5,131.2c-1.7,0-3.2-1.4-3.2-3.2V77.7c0-1.7,1.4-3.2,3.2-3.2s3.2,1.4,3.2,3.2v50.4
	C113.7,129.8,112.3,131.2,110.5,131.2z"/>
<path class="st1" d="M110.5,75.3c1.3,0,2.4,1.1,2.4,2.4v50.4c0,1.3-1.1,2.4-2.4,2.4c-1.3,0-2.4-1.1-2.4-2.4V77.7
	C108.1,76.3,109.2,75.3,110.5,75.3 M110.5,73.7c-2.2,0-3.9,1.8-3.9,3.9v50.4c0,2.2,1.8,3.9,3.9,3.9c2.2,0,3.9-1.8,3.9-3.9V77.7
	C114.5,75.5,112.7,73.7,110.5,73.7z"/>
<path class="st0" d="M127.2,131.2c-1.8,0-3.2-1.4-3.2-3.2V77.7c0-1.7,1.4-3.2,3.2-3.2c1.7,0,3.2,1.4,3.2,3.2v50.4
	C130.4,129.8,128.9,131.2,127.2,131.2z"/>
<path class="st1" d="M127.2,75.3c1.3,0,2.4,1.1,2.4,2.4v50.4c0,1.3-1.1,2.4-2.4,2.4c-1.3,0-2.4-1.1-2.4-2.4V77.7
	C124.8,76.3,125.9,75.3,127.2,75.3 M127.2,73.7c-2.2,0-3.9,1.8-3.9,3.9v50.4c0,2.2,1.8,3.9,3.9,3.9c2.2,0,3.9-1.8,3.9-3.9V77.7
	C131.1,75.5,129.4,73.7,127.2,73.7z"/>
<path class="st2" d="M143.8,131.2c-1.7,0-3.2-1.4-3.2-3.2V77.7c0-1.7,1.4-3.2,3.2-3.2c1.8,0,3.2,1.4,3.2,3.2v50.4
	C147,129.8,145.6,131.2,143.8,131.2z"/>
<path class="st1" d="M143.8,75.3c1.3,0,2.4,1.1,2.4,2.4v50.4c0,1.3-1.1,2.4-2.4,2.4s-2.4-1.1-2.4-2.4V77.7
	C141.4,76.3,142.5,75.3,143.8,75.3 M143.8,73.7c-2.2,0-3.9,1.8-3.9,3.9v50.4c0,2.2,1.8,3.9,3.9,3.9c2.2,0,3.9-1.8,3.9-3.9V77.7
	C147.8,75.5,146,73.7,143.8,73.7z"/>
<path class="st2" d="M27.2,75.3c-1.3,0-2.4,1.1-2.4,2.4v4.4c0-1.3,1.1-2.4,2.4-2.4c1.3,0,2.4,1.1,2.4,2.4v-4.4
	C29.7,76.3,28.6,75.3,27.2,75.3z"/>
<path class="st2" d="M43.9,75.3c-1.3,0-2.4,1.1-2.4,2.4v4.4c0-1.3,1.1-2.4,2.4-2.4c1.3,0,2.4,1.1,2.4,2.4v-4.4
	C46.3,76.3,45.2,75.3,43.9,75.3z"/>
<path class="st2" d="M60.6,75.3c-1.3,0-2.4,1.1-2.4,2.4v4.4c0-1.3,1.1-2.4,2.4-2.4c1.3,0,2.4,1.1,2.4,2.4v-4.4
	C63,76.3,61.9,75.3,60.6,75.3z"/>
<path class="st2" d="M77.2,75.3c-1.3,0-2.4,1.1-2.4,2.4v4.4c0-1.3,1.1-2.4,2.4-2.4c1.3,0,2.4,1.1,2.4,2.4v-4.4
	C79.6,76.3,78.5,75.3,77.2,75.3z"/>
<path class="st2" d="M93.9,75.3c-1.3,0-2.4,1.1-2.4,2.4v4.4c0-1.3,1.1-2.4,2.4-2.4c1.3,0,2.4,1.1,2.4,2.4v-4.4
	C96.3,76.3,95.2,75.3,93.9,75.3z"/>
<path class="st2" d="M110.5,75.3c-1.3,0-2.4,1.1-2.4,2.4v4.4c0-1.3,1.1-2.4,2.4-2.4c1.3,0,2.4,1.1,2.4,2.4v-4.4
	C112.9,76.3,111.9,75.3,110.5,75.3z"/>
<path class="st5" d="M127.2,75.3c-1.3,0-2.4,1.1-2.4,2.4v4.4c0-1.3,1.1-2.4,2.4-2.4c1.3,0,2.4,1.1,2.4,2.4v-4.4
	C129.6,76.3,128.5,75.3,127.2,75.3z"/>
<path class="st5" d="M143.8,75.3c-1.3,0-2.4,1.1-2.4,2.4v4.4c0-1.3,1.1-2.4,2.4-2.4c1.3,0,2.4,1.1,2.4,2.4v-4.4
	C146.3,76.3,145.2,75.3,143.8,75.3z"/>
<path class="st2" d="M13,110.9c0,1.3-1.1,2.4-2.4,2.4c-1.3,0-2.4-1.1-2.4-2.4v5.7H13V110.9z"/>
<path class="st2" d="M29.7,110.9c0,1.3-1.1,2.4-2.4,2.4c-1.3,0-2.4-1.1-2.4-2.4v5.7h4.8V110.9z"/>
<path class="st2" d="M46.3,110.9c0,1.3-1.1,2.4-2.4,2.4c-1.3,0-2.4-1.1-2.4-2.4v5.7h4.8V110.9z"/>
<path class="st2" d="M63,110.9c0,1.3-1.1,2.4-2.4,2.4c-1.3,0-2.4-1.1-2.4-2.4v5.7H63V110.9z"/>
<path class="st2" d="M79.6,110.9c0,1.3-1.1,2.4-2.4,2.4c-1.3,0-2.4-1.1-2.4-2.4v5.7h4.8V110.9z"/>
<path class="st2" d="M96.3,110.9c0,1.3-1.1,2.4-2.4,2.4c-1.3,0-2.4-1.1-2.4-2.4v5.7h4.8V110.9z"/>
<path class="st2" d="M112.9,110.9c0,1.3-1.1,2.4-2.4,2.4c-1.3,0-2.4-1.1-2.4-2.4v5.7h4.8V110.9z"/>
<path class="st5" d="M129.6,110.9c0,1.3-1.1,2.4-2.4,2.4c-1.3,0-2.4-1.1-2.4-2.4v5.7h4.8V110.9z"/>
<path class="st5" d="M146.3,110.9c0,1.3-1.1,2.4-2.4,2.4c-1.3,0-2.4-1.1-2.4-2.4v5.7h4.8V110.9z"/>
<path class="st3" d="M4.3,132.7c-1.9,0-3.5-1.6-3.5-3.5v-13.4h152.9v13.4c0,1.9-1.6,3.5-3.5,3.5H4.3z"/>
<path class="st1" d="M152.9,116.6v12.6c0,1.5-1.2,2.7-2.7,2.7H4.3c-1.5,0-2.7-1.2-2.7-2.7v-12.6H152.9 M154.4,115.1h-1.5H1.5H0v1.5
	v12.6c0,2.4,1.9,4.3,4.3,4.3h145.9c2.4,0,4.3-1.9,4.3-4.3v-12.6V115.1z"/>
<rect x="0.8" y="185" class="st2" width="152.9" height="129.3"/>
<path class="st1" d="M152.9,185.7v127.7H1.5V185.7H152.9 M154.4,184.2h-1.5H1.5H0v1.5v127.7v1.5h1.5h151.4h1.5v-1.5V185.7V184.2z"/>
<path class="st6" d="M16.8,164.5c0-6,4.8-10.8,10.8-10.8H12.3c-6,0-10.8,4.8-10.8,10.8v19.7h15.3V164.5z"/>
<path class="st6" d="M1.5,330v6.7c0,5.1,4.1,9.2,9.2,9.2H26c-5.1,0-9.2-4.1-9.2-9.2V330H1.5z"/>
<rect x="1.5" y="185.7" class="st5" width="15.3" height="127.7"/>
<rect x="0.8" y="324" class="st2" width="152.9" height="5.3"/>
<path class="st1" d="M152.9,324.8v3.8H1.5v-3.8H152.9 M154.4,323.2h-1.5H1.5H0v1.5v3.8v1.5h1.5h151.4h1.5v-1.5v-3.8V323.2z"/>
<rect x="1.5" y="315" class="st6" width="15.3" height="8.2"/>
<rect x="1.5" y="324.8" class="st5" width="15.3" height="3.8"/>
<path class="st4" d="M145.3,164.5c0-6-4.8-10.8-10.8-10.8h7.6c6,0,10.8,4.8,10.8,10.8v19.7h-7.6V164.5z"/>
<path class="st4" d="M152.9,330v6.7c0,5.1-4.1,9.2-9.2,9.2H136c5.1,0,9.2-4.1,9.2-9.2V330H152.9z"/>
<rect x="145.3" y="185.7" class="st0" width="7.6" height="127.7"/>
<rect x="145.3" y="315" class="st4" width="7.6" height="8.2"/>
<rect x="145.3" y="324.8" class="st0" width="7.6" height="3.8"/>
<rect x="1.5" y="226.6" class="st3" width="151.4" height="46.1"/>
<rect x="1.5" y="226.6" class="st2" width="15.3" height="46.1"/>
<rect x="145.3" y="226.6" class="st4" width="7.6" height="46.1"/>
<rect x="128.3" y="84.4" class="st0" width="164.8" height="30"/>
<path class="st1" d="M292.3,85.2v28.5H129V85.2H292.3 M293.9,83.6h-1.6H129h-1.6v1.6v28.5v1.6h1.6h163.3h1.6v-1.6V85.2V83.6z"/>
<rect x="129" y="85.2" class="st2" width="163.3" height="7.7"/>
<path class="st3" d="M115,86.2c-2.5,0-4.6-2.1-4.6-4.6V9.8c0-4.8,3.9-8.8,8.8-8.8h182.9c4.8,0,8.8,3.9,8.8,8.8v71.8
	c0,2.5-2.1,4.6-4.6,4.6H115z"/>
<path class="st1" d="M302.1,2c4.3,0,7.8,3.5,7.8,7.8v71.8c0,2-1.6,3.6-3.6,3.6H115c-2,0-3.6-1.6-3.6-3.6V9.8c0-4.3,3.5-7.8,7.8-7.8
	H302.1 M302.1,0H119.2c-5.4,0-9.8,4.4-9.8,9.8v71.8c0,3.1,2.5,5.6,5.6,5.6h191.3c3.1,0,5.6-2.5,5.6-5.6V9.8
	C311.9,4.4,307.5,0,302.1,0z"/>
<path class="st4" d="M302.1,2H119.2c-4.3,0-7.8,3.5-7.8,7.8v2c0-4.3,3.5-7.8,7.8-7.8h182.9c4.3,0,7.8,3.5,7.8,7.8v-2
	C309.9,5.5,306.4,2,302.1,2z"/>
<path class="st0" d="M123.6,366.7c-7.2,0-13.1-5.9-13.1-13.1V127.8c0-8.4,6.8-15.2,15.2-15.2h170.2c8.4,0,15.2,6.8,15.2,15.2v225.8
	c0,7.2-5.9,13.1-13.1,13.1H123.6z"/>
<path class="st1" d="M295.8,113.7c7.8,0,14.2,6.3,14.2,14.2v225.8c0,6.7-5.4,12.1-12.1,12.1H123.6c-6.7,0-12.1-5.4-12.1-12.1V127.8
	c0-7.8,6.3-14.2,14.2-14.2H295.8 M295.8,111.7H125.6c-8.9,0-16.2,7.2-16.2,16.2v225.8c0,7.8,6.3,14.1,14.1,14.1h174.3
	c7.8,0,14.1-6.3,14.1-14.1V127.8C311.9,118.9,304.7,111.7,295.8,111.7z"/>
<path class="st4" d="M295.8,113.7H125.6c-7.8,0-14.2,6.3-14.2,14.2v2c0-7.8,6.3-14.2,14.2-14.2h170.2c7.8,0,14.2,6.3,14.2,14.2v-2
	C309.9,120,303.6,113.7,295.8,113.7z"/>
<path class="st0" d="M123.3,84.2c-2.3,0-4.2-1.9-4.2-4.2V14c0-2.3,1.9-4.2,4.2-4.2c2.3,0,4.2,1.9,4.2,4.2v66.1
	C127.5,82.4,125.6,84.2,123.3,84.2z"/>
<path class="st1" d="M123.3,10.8c1.7,0,3.2,1.4,3.2,3.2v66.1c0,1.7-1.4,3.2-3.2,3.2c-1.7,0-3.2-1.4-3.2-3.2V14
	C120.2,12.2,121.6,10.8,123.3,10.8 M123.3,8.8c-2.8,0-5.2,2.3-5.2,5.2v66.1c0,2.8,2.3,5.2,5.2,5.2c2.8,0,5.2-2.3,5.2-5.2V14
	C128.5,11.1,126.2,8.8,123.3,8.8z"/>
<path class="st2" d="M123.3,10.8c-1.7,0-3.2,1.4-3.2,3.2v5.8c0-1.7,1.4-3.2,3.2-3.2c1.7,0,3.2,1.4,3.2,3.2V14
	C126.5,12.2,125.1,10.8,123.3,10.8z"/>
<path class="st0" d="M145.2,84.2c-2.3,0-4.2-1.9-4.2-4.2V14c0-2.3,1.9-4.2,4.2-4.2c2.3,0,4.2,1.9,4.2,4.2v66.1
	C149.3,82.4,147.5,84.2,145.2,84.2z"/>
<path class="st1" d="M145.2,10.8c1.7,0,3.2,1.4,3.2,3.2v66.1c0,1.7-1.4,3.2-3.2,3.2c-1.7,0-3.2-1.4-3.2-3.2V14
	C142,12.2,143.4,10.8,145.2,10.8 M145.2,8.8c-2.8,0-5.2,2.3-5.2,5.2v66.1c0,2.8,2.3,5.2,5.2,5.2c2.8,0,5.2-2.3,5.2-5.2V14
	C150.3,11.1,148,8.8,145.2,8.8z"/>
<path class="st0" d="M167,84.2c-2.3,0-4.2-1.9-4.2-4.2V14c0-2.3,1.9-4.2,4.2-4.2s4.2,1.9,4.2,4.2v66.1
	C171.2,82.4,169.3,84.2,167,84.2z"/>
<path class="st1" d="M167,10.8c1.7,0,3.2,1.4,3.2,3.2v66.1c0,1.7-1.4,3.2-3.2,3.2s-3.2-1.4-3.2-3.2V14
	C163.8,12.2,165.3,10.8,167,10.8 M167,8.8c-2.8,0-5.2,2.3-5.2,5.2v66.1c0,2.8,2.3,5.2,5.2,5.2c2.8,0,5.2-2.3,5.2-5.2V14
	C172.2,11.1,169.8,8.8,167,8.8z"/>
<path class="st0" d="M188.8,84.2c-2.3,0-4.2-1.9-4.2-4.2V14c0-2.3,1.9-4.2,4.2-4.2c2.3,0,4.2,1.9,4.2,4.2v66.1
	C193,82.4,191.1,84.2,188.8,84.2z"/>
<path class="st1" d="M188.8,10.8c1.7,0,3.2,1.4,3.2,3.2v66.1c0,1.7-1.4,3.2-3.2,3.2s-3.2-1.4-3.2-3.2V14
	C185.7,12.2,187.1,10.8,188.8,10.8 M188.8,8.8c-2.8,0-5.2,2.3-5.2,5.2v66.1c0,2.8,2.3,5.2,5.2,5.2s5.2-2.3,5.2-5.2V14
	C194,11.1,191.7,8.8,188.8,8.8z"/>
<path class="st0" d="M210.7,84.2c-2.3,0-4.2-1.9-4.2-4.2V14c0-2.3,1.9-4.2,4.2-4.2c2.3,0,4.2,1.9,4.2,4.2v66.1
	C214.8,82.4,213,84.2,210.7,84.2z"/>
<path class="st1" d="M210.7,10.8c1.7,0,3.2,1.4,3.2,3.2v66.1c0,1.7-1.4,3.2-3.2,3.2c-1.7,0-3.2-1.4-3.2-3.2V14
	C207.5,12.2,208.9,10.8,210.7,10.8 M210.7,8.8c-2.8,0-5.2,2.3-5.2,5.2v66.1c0,2.8,2.3,5.2,5.2,5.2c2.8,0,5.2-2.3,5.2-5.2V14
	C215.8,11.1,213.5,8.8,210.7,8.8z"/>
<path class="st0" d="M232.5,84.2c-2.3,0-4.2-1.9-4.2-4.2V14c0-2.3,1.9-4.2,4.2-4.2s4.2,1.9,4.2,4.2v66.1
	C236.7,82.4,234.8,84.2,232.5,84.2z"/>
<path class="st1" d="M232.5,10.8c1.7,0,3.2,1.4,3.2,3.2v66.1c0,1.7-1.4,3.2-3.2,3.2s-3.2-1.4-3.2-3.2V14
	C229.4,12.2,230.8,10.8,232.5,10.8 M232.5,8.8c-2.8,0-5.2,2.3-5.2,5.2v66.1c0,2.8,2.3,5.2,5.2,5.2c2.8,0,5.2-2.3,5.2-5.2V14
	C237.7,11.1,235.4,8.8,232.5,8.8z"/>
<path class="st0" d="M254.4,84.2c-2.3,0-4.2-1.9-4.2-4.2V14c0-2.3,1.9-4.2,4.2-4.2s4.2,1.9,4.2,4.2v66.1
	C258.5,82.4,256.7,84.2,254.4,84.2z"/>
<path class="st1" d="M254.4,10.8c1.7,0,3.2,1.4,3.2,3.2v66.1c0,1.7-1.4,3.2-3.2,3.2c-1.7,0-3.2-1.4-3.2-3.2V14
	C251.2,12.2,252.6,10.8,254.4,10.8 M254.4,8.8c-2.8,0-5.2,2.3-5.2,5.2v66.1c0,2.8,2.3,5.2,5.2,5.2c2.8,0,5.2-2.3,5.2-5.2V14
	C259.5,11.1,257.2,8.8,254.4,8.8z"/>
<path class="st0" d="M276.2,84.2c-2.3,0-4.2-1.9-4.2-4.2V14c0-2.3,1.9-4.2,4.2-4.2c2.3,0,4.2,1.9,4.2,4.2v66.1
	C280.4,82.4,278.5,84.2,276.2,84.2z"/>
<path class="st1" d="M276.2,10.8c1.7,0,3.2,1.4,3.2,3.2v66.1c0,1.7-1.4,3.2-3.2,3.2c-1.7,0-3.2-1.4-3.2-3.2V14
	C273,12.2,274.5,10.8,276.2,10.8 M276.2,8.8c-2.8,0-5.2,2.3-5.2,5.2v66.1c0,2.8,2.3,5.2,5.2,5.2c2.8,0,5.2-2.3,5.2-5.2V14
	C281.4,11.1,279,8.8,276.2,8.8z"/>
<path class="st0" d="M298,84.2c-2.3,0-4.2-1.9-4.2-4.2V14c0-2.3,1.9-4.2,4.2-4.2c2.3,0,4.2,1.9,4.2,4.2v66.1
	C302.2,82.4,300.3,84.2,298,84.2z"/>
<path class="st1" d="M298,10.8c1.7,0,3.2,1.4,3.2,3.2v66.1c0,1.7-1.4,3.2-3.2,3.2s-3.2-1.4-3.2-3.2V14
	C294.9,12.2,296.3,10.8,298,10.8 M298,8.8c-2.8,0-5.2,2.3-5.2,5.2v66.1c0,2.8,2.3,5.2,5.2,5.2c2.8,0,5.2-2.3,5.2-5.2V14
	C303.2,11.1,300.9,8.8,298,8.8z"/>
<path class="st2" d="M145.2,10.8c-1.7,0-3.2,1.4-3.2,3.2v5.8c0-1.7,1.4-3.2,3.2-3.2c1.7,0,3.2,1.4,3.2,3.2V14
	C148.3,12.2,146.9,10.8,145.2,10.8z"/>
<path class="st2" d="M167,10.8c-1.7,0-3.2,1.4-3.2,3.2v5.8c0-1.7,1.4-3.2,3.2-3.2c1.7,0,3.2,1.4,3.2,3.2V14
	C170.2,12.2,168.7,10.8,167,10.8z"/>
<path class="st2" d="M188.8,10.8c-1.7,0-3.2,1.4-3.2,3.2v5.8c0-1.7,1.4-3.2,3.2-3.2c1.7,0,3.2,1.4,3.2,3.2V14
	C192,12.2,190.6,10.8,188.8,10.8z"/>
<path class="st2" d="M210.7,10.8c-1.7,0-3.2,1.4-3.2,3.2v5.8c0-1.7,1.4-3.2,3.2-3.2c1.7,0,3.2,1.4,3.2,3.2V14
	C213.8,12.2,212.4,10.8,210.7,10.8z"/>
<path class="st2" d="M232.5,10.8c-1.7,0-3.2,1.4-3.2,3.2v5.8c0-1.7,1.4-3.2,3.2-3.2c1.7,0,3.2,1.4,3.2,3.2V14
	C235.7,12.2,234.3,10.8,232.5,10.8z"/>
<path class="st2" d="M254.4,10.8c-1.7,0-3.2,1.4-3.2,3.2v5.8c0-1.7,1.4-3.2,3.2-3.2c1.7,0,3.2,1.4,3.2,3.2V14
	C257.5,12.2,256.1,10.8,254.4,10.8z"/>
<path class="st2" d="M276.2,10.8c-1.7,0-3.2,1.4-3.2,3.2v5.8c0-1.7,1.4-3.2,3.2-3.2c1.7,0,3.2,1.4,3.2,3.2V14
	C279.4,12.2,277.9,10.8,276.2,10.8z"/>
<path class="st2" d="M298,10.8c-1.7,0-3.2,1.4-3.2,3.2v5.8c0-1.7,1.4-3.2,3.2-3.2c1.7,0,3.2,1.4,3.2,3.2V14
	C301.2,12.2,299.8,10.8,298,10.8z"/>
<path class="st2" d="M126.5,57.6c0,1.7-1.4,3.2-3.2,3.2c-1.7,0-3.2-1.4-3.2-3.2v7.5h6.3V57.6z"/>
<path class="st2" d="M148.3,57.6c0,1.7-1.4,3.2-3.2,3.2c-1.7,0-3.2-1.4-3.2-3.2v7.5h6.3V57.6z"/>
<path class="st2" d="M170.2,57.6c0,1.7-1.4,3.2-3.2,3.2c-1.7,0-3.2-1.4-3.2-3.2v7.5h6.3V57.6z"/>
<path class="st2" d="M192,57.6c0,1.7-1.4,3.2-3.2,3.2c-1.7,0-3.2-1.4-3.2-3.2v7.5h6.3V57.6z"/>
<path class="st2" d="M213.8,57.6c0,1.7-1.4,3.2-3.2,3.2c-1.7,0-3.2-1.4-3.2-3.2v7.5h6.3V57.6z"/>
<path class="st2" d="M235.7,57.6c0,1.7-1.4,3.2-3.2,3.2c-1.7,0-3.2-1.4-3.2-3.2v7.5h6.3V57.6z"/>
<path class="st2" d="M257.5,57.6c0,1.7-1.4,3.2-3.2,3.2c-1.7,0-3.2-1.4-3.2-3.2v7.5h6.3V57.6z"/>
<path class="st2" d="M279.4,57.6c0,1.7-1.4,3.2-3.2,3.2c-1.7,0-3.2-1.4-3.2-3.2v7.5h6.3V57.6z"/>
<path class="st2" d="M301.2,57.6c0,1.7-1.4,3.2-3.2,3.2c-1.7,0-3.2-1.4-3.2-3.2v7.5h6.3V57.6z"/>
<path class="st3" d="M115,86.2c-2.5,0-4.6-2.1-4.6-4.6V64.1h200.5v17.5c0,2.5-2.1,4.6-4.6,4.6H115z"/>
<path class="st1" d="M309.9,65.1v16.5c0,2-1.6,3.6-3.6,3.6H115c-2,0-3.6-1.6-3.6-3.6V65.1H309.9 M311.9,63.1h-2H111.4h-2v2v16.5
	c0,3.1,2.5,5.6,5.6,5.6h191.3c3.1,0,5.6-2.5,5.6-5.6V65.1V63.1z"/>
<rect x="110.4" y="154.7" class="st2" width="200.5" height="169.5"/>
<path class="st1" d="M309.9,155.7v167.5H111.4V155.7H309.9 M311.9,153.7h-2H111.4h-2v2v167.5v2h2h198.5h2v-2V155.7V153.7z"/>
<path class="st6" d="M131.5,127.8c0-7.8,6.3-14.2,14.2-14.2h-20c-7.8,0-14.2,6.3-14.2,14.2v25.9h20V127.8z"/>
<path class="st6" d="M111.4,344.9v8.7c0,6.7,5.4,12.1,12.1,12.1h20c-6.7,0-12.1-5.4-12.1-12.1v-8.7H111.4z"/>
<rect x="111.4" y="155.7" class="st5" width="20" height="167.5"/>
<rect x="110.4" y="337" class="st2" width="200.5" height="6.9"/>
<path class="st1" d="M309.9,338v4.9H111.4V338H309.9 M311.9,336h-2H111.4h-2v2v4.9v2h2h198.5h2v-2V338V336z"/>
<rect x="111.4" y="325.2" class="st6" width="20" height="10.8"/>
<rect x="111.4" y="338" class="st5" width="20" height="4.9"/>
<path class="st4" d="M299.9,127.8c0-7.8-6.3-14.2-14.2-14.2h10c7.8,0,14.2,6.3,14.2,14.2v25.9h-10V127.8z"/>
<path class="st4" d="M309.9,344.9v8.7c0,6.7-5.4,12.1-12.1,12.1h-10c6.7,0,12.1-5.4,12.1-12.1v-8.7H309.9z"/>
<rect x="299.9" y="155.7" class="st0" width="10" height="167.5"/>
<rect x="299.9" y="325.2" class="st4" width="10" height="10.8"/>
<rect x="299.9" y="338" class="st0" width="10" height="4.9"/>
<rect x="111.4" y="209.2" class="st3" width="198.5" height="60.4"/>
<rect x="111.4" y="209.2" class="st2" width="20" height="60.4"/>
<rect x="299.9" y="209.2" class="st4" width="10" height="60.4"/>
</svg>
