<?xml version="1.0" encoding="utf-8"?>
<!-- Generator: Adobe Illustrator 19.1.0, SVG Export Plug-In . SVG Version: 6.00 Build 0)  -->
<svg version="1.1" id="Layer_1" xmlns="http://www.w3.org/2000/svg" xmlns:xlink="http://www.w3.org/1999/xlink" x="0px" y="0px"
	 viewBox="-94 213.3 421.4 367.7" style="enable-background:new -94 213.3 421.4 367.7;" xml:space="preserve">
<style type="text/css">
	.st0{fill:#E8EAEA;}
	.st1{fill:#263238;}
	.st2{fill:#BCC0C2;}
	.st3{fill:#FDFEFD;}
	.st4{fill:#FFFFFF;}
	.st5{fill:#88D892;}
	.st6{fill:#D4D7D9;}
	.st7{fill:#F9FDF9;}
	.st8{fill:#F7F7F7;}
	.st9{fill:#777F83;}
</style>
<g>
	<rect x="187.2" y="344.6" class="st0" width="125.7" height="22.9"/>
	<path class="st1" d="M312.4,345.2v21.7H187.8v-21.7H312.4 M313.6,344h-1.2H187.8h-1.2v1.2v21.7v1.2h1.2h124.5h1.2v-1.2v-21.7V344z"
		/>
	<rect x="187.8" y="345.2" class="st2" width="124.5" height="5.9"/>
	<path class="st3" d="M177.2,345.9c-1.9,0-3.5-1.6-3.5-3.5v-54.7c0-3.7,3-6.7,6.7-6.7h139.5c3.7,0,6.7,3,6.7,6.7v54.8
		c0,1.9-1.6,3.5-3.5,3.5H177.2V345.9z"/>
	<path class="st1" d="M319.9,281.8c3.3,0,5.9,2.7,5.9,5.9v54.8c0,1.5-1.2,2.7-2.7,2.7H177.2c-1.5,0-2.7-1.2-2.7-2.7v-54.7
		c0-3.3,2.7-5.9,5.9-5.9L319.9,281.8 M319.9,280.2H180.3c-4.1,0-7.5,3.3-7.5,7.5v54.8c0,2.4,1.9,4.3,4.3,4.3H323
		c2.4,0,4.3-1.9,4.3-4.3v-54.8C327.4,283.5,324,280.2,319.9,280.2z"/>
	<path class="st4" d="M319.9,281.8H180.3c-3.3,0-5.9,2.7-5.9,5.9v1.6c0-3.3,2.7-5.9,5.9-5.9h139.5c3.3,0,5.9,2.7,5.9,5.9v-1.5
		C325.8,284.4,323.2,281.8,319.9,281.8z"/>
	<path class="st0" d="M183.7,560c-5.5,0-10-4.5-10-10V377.8c0-6.4,5.2-11.6,11.6-11.6H315c6.4,0,11.6,5.2,11.6,11.6V550
		c0,5.5-4.5,10-10,10H183.7z"/>
	<path class="st1" d="M315,366.9c6,0,10.8,4.8,10.8,10.8V550c0,5.1-4.1,9.2-9.2,9.2H183.7c-5.1,0-9.2-4.1-9.2-9.2V377.8
		c0-6,4.8-10.8,10.8-10.8H315 M315,365.4H185.2c-6.8,0-12.3,5.5-12.3,12.3V550c0,5.9,4.8,10.8,10.8,10.8h132.9
		c5.9,0,10.8-4.8,10.8-10.8V377.8C327.4,370.9,321.8,365.4,315,365.4z"/>
	<path class="st4" d="M315,366.9H185.2c-6,0-10.8,4.8-10.8,10.8v1.5c0-6,4.8-10.8,10.8-10.8H315c6,0,10.8,4.8,10.8,10.8v-1.5
		C325.8,371.8,321,366.9,315,366.9z"/>
	<path class="st2" d="M183.4,344.4c-1.7,0-3.2-1.4-3.2-3.2v-50.3c0-1.7,1.4-3.2,3.2-3.2c1.8,0,3.2,1.4,3.2,3.2v50.4
		C186.7,343,185.2,344.4,183.4,344.4z"/>
	<path class="st1" d="M183.4,288.5c1.3,0,2.4,1.1,2.4,2.4v50.4c0,1.3-1.1,2.4-2.4,2.4s-2.4-1.1-2.4-2.4v-50.4
		C181.1,289.5,182.2,288.5,183.4,288.5 M183.4,286.9c-2.2,0-3.9,1.8-3.9,3.9v50.4c0,2.2,1.8,3.9,3.9,3.9c2.2,0,3.9-1.8,3.9-3.9
		v-50.3C187.3,288.8,185.7,286.9,183.4,286.9z"/>
	<path class="st5" d="M183.4,288.5c-1.3,0-2.4,1.1-2.4,2.4v4.4c0-1.3,1.1-2.4,2.4-2.4s2.4,1.1,2.4,2.4v-4.4
		C185.8,289.5,184.7,288.5,183.4,288.5z"/>
	<path class="st0" d="M200.2,344.4c-1.7,0-3.2-1.4-3.2-3.2v-50.3c0-1.7,1.4-3.2,3.2-3.2c1.8,0,3.2,1.4,3.2,3.2v50.4
		C203.2,343,201.8,344.4,200.2,344.4z"/>
	<path class="st1" d="M200.2,288.5c1.3,0,2.4,1.1,2.4,2.4v50.4c0,1.3-1.1,2.4-2.4,2.4s-2.4-1.1-2.4-2.4v-50.4
		C197.7,289.5,198.7,288.5,200.2,288.5 M200.2,286.9c-2.2,0-3.9,1.8-3.9,3.9v50.4c0,2.2,1.8,3.9,3.9,3.9c2.2,0,3.9-1.8,3.9-3.9
		v-50.3C204.1,288.8,202.2,286.9,200.2,286.9z"/>
	<path class="st0" d="M216.7,344.4c-1.7,0-3.2-1.4-3.2-3.2v-50.3c0-1.7,1.4-3.2,3.2-3.2c1.7,0,3.2,1.4,3.2,3.2v50.4
		C219.9,343,218.6,344.4,216.7,344.4z"/>
	<path class="st1" d="M216.7,288.5c1.3,0,2.4,1.1,2.4,2.4v50.4c0,1.3-1.1,2.4-2.4,2.4s-2.4-1.1-2.4-2.4v-50.4
		C214.3,289.5,215.4,288.5,216.7,288.5 M216.7,286.9c-2.2,0-3.9,1.8-3.9,3.9v50.4c0,2.2,1.8,3.9,3.9,3.9c2.2,0,3.9-1.8,3.9-3.9
		v-50.3C220.7,288.8,218.9,286.9,216.7,286.9z"/>
	<path class="st0" d="M233.4,344.4c-1.7,0-3.2-1.4-3.2-3.2v-50.3c0-1.7,1.4-3.2,3.2-3.2c1.7,0,3.2,1.4,3.2,3.2v50.4
		C236.7,343,235.2,344.4,233.4,344.4z"/>
	<path class="st1" d="M233.4,288.5c1.3,0,2.4,1.1,2.4,2.4v50.4c0,1.3-1.1,2.4-2.4,2.4s-2.4-1.1-2.4-2.4v-50.4
		C231.1,289.5,232.2,288.5,233.4,288.5 M233.4,286.9c-2.2,0-3.9,1.8-3.9,3.9v50.4c0,2.2,1.8,3.9,3.9,3.9s3.9-1.8,3.9-3.9v-50.3
		C237.3,288.8,235.7,286.9,233.4,286.9z"/>
	<path class="st0" d="M250.1,344.4c-1.8,0-3.2-1.4-3.2-3.2v-50.3c0-1.7,1.4-3.2,3.2-3.2c1.8,0,3.2,1.4,3.2,3.2v50.4
		C253.2,343,251.8,344.4,250.1,344.4z"/>
	<path class="st1" d="M250.1,288.5c1.3,0,2.4,1.1,2.4,2.4v50.4c0,1.3-1.1,2.4-2.4,2.4s-2.4-1.1-2.4-2.4v-50.4
		C247.7,289.5,248.7,288.5,250.1,288.5 M250.1,286.9c-2.2,0-3.9,1.8-3.9,3.9v50.4c0,2.2,1.8,3.9,3.9,3.9c2.2,0,3.9-1.8,3.9-3.9
		v-50.3C254.1,288.8,252.2,286.9,250.1,286.9z"/>
	<path class="st0" d="M266.8,344.4c-1.7,0-3.2-1.4-3.2-3.2v-50.3c0-1.7,1.4-3.2,3.2-3.2c1.7,0,3.2,1.4,3.2,3.2v50.4
		C270,343,268.5,344.4,266.8,344.4z"/>
	<path class="st1" d="M266.8,288.5c1.3,0,2.4,1.1,2.4,2.4v50.4c0,1.3-1.1,2.4-2.4,2.4s-2.4-1.1-2.4-2.4v-50.4
		C264.4,289.5,265.5,288.5,266.8,288.5 M266.8,286.9c-2.2,0-3.9,1.8-3.9,3.9v50.4c0,2.2,1.8,3.9,3.9,3.9c2.2,0,3.9-1.8,3.9-3.9
		v-50.3C270.7,288.8,269,286.9,266.8,286.9z"/>
	<path class="st0" d="M283.5,344.4c-1.7,0-3.2-1.4-3.2-3.2v-50.3c0-1.7,1.4-3.2,3.2-3.2c1.7,0,3.2,1.4,3.2,3.2v50.4
		C286.6,343,285.2,344.4,283.5,344.4z"/>
	<path class="st1" d="M283.5,288.5c1.3,0,2.4,1.1,2.4,2.4v50.4c0,1.3-1.1,2.4-2.4,2.4s-2.4-1.1-2.4-2.4v-50.4
		C281,289.5,282.1,288.5,283.5,288.5 M283.5,286.9c-2.2,0-3.9,1.8-3.9,3.9v50.4c0,2.2,1.8,3.9,3.9,3.9c2.2,0,3.9-1.8,3.9-3.9v-50.3
		C287.4,288.8,285.6,286.9,283.5,286.9z"/>
	<path class="st0" d="M300.1,344.4c-1.8,0-3.2-1.4-3.2-3.2v-50.3c0-1.7,1.4-3.2,3.2-3.2c1.7,0,3.2,1.4,3.2,3.2v50.4
		C303.2,343,301.9,344.4,300.1,344.4z"/>
	<path class="st1" d="M300.1,288.5c1.3,0,2.4,1.1,2.4,2.4v50.4c0,1.3-1.1,2.4-2.4,2.4s-2.4-1.1-2.4-2.4v-50.4
		C297.7,289.5,298.8,288.5,300.1,288.5 M300.1,286.9c-2.2,0-3.9,1.8-3.9,3.9v50.4c0,2.2,1.8,3.9,3.9,3.9c2.2,0,3.9-1.8,3.9-3.9
		v-50.3C304,288.8,302.2,286.9,300.1,286.9z"/>
	<path class="st0" d="M316.8,344.4c-1.8,0-3.2-1.4-3.2-3.2v-50.3c0-1.7,1.4-3.2,3.2-3.2c1.8,0,3.2,1.4,3.2,3.2v50.4
		C319.9,343,318.5,344.4,316.8,344.4z"/>
	<path class="st1" d="M316.8,288.5c1.3,0,2.4,1.1,2.4,2.4v50.4c0,1.3-1.1,2.4-2.4,2.4s-2.4-1.1-2.4-2.4v-50.4
		C314.4,289.5,315.4,288.5,316.8,288.5 M316.8,286.9c-2.2,0-3.9,1.8-3.9,3.9v50.4c0,2.2,1.8,3.9,3.9,3.9c2.2,0,3.9-1.8,3.9-3.9
		v-50.3C320.7,288.8,318.9,286.9,316.8,286.9z"/>
	<path class="st5" d="M200.2,288.5c-1.3,0-2.4,1.1-2.4,2.4v4.4c0-1.3,1.1-2.4,2.4-2.4s2.4,1.1,2.4,2.4v-4.4
		C202.6,289.5,201.4,288.5,200.2,288.5z"/>
	<path class="st2" d="M216.7,288.5c-1.3,0-2.4,1.1-2.4,2.4v4.4c0-1.3,1.1-2.4,2.4-2.4s2.4,1.1,2.4,2.4v-4.4
		C219.2,289.5,218.2,288.5,216.7,288.5z"/>
	<path class="st2" d="M233.4,288.5c-1.3,0-2.4,1.1-2.4,2.4v4.4c0-1.3,1.1-2.4,2.4-2.4s2.4,1.1,2.4,2.4v-4.4
		C235.8,289.5,234.7,288.5,233.4,288.5z"/>
	<path class="st2" d="M250.1,288.5c-1.3,0-2.4,1.1-2.4,2.4v4.4c0-1.3,1.1-2.4,2.4-2.4s2.4,1.1,2.4,2.4v-4.4
		C252.6,289.5,251.4,288.5,250.1,288.5z"/>
	<path class="st2" d="M266.8,288.5c-1.3,0-2.4,1.1-2.4,2.4v4.4c0-1.3,1.1-2.4,2.4-2.4s2.4,1.1,2.4,2.4v-4.4
		C269.2,289.5,268.1,288.5,266.8,288.5z"/>
	<path class="st2" d="M283.5,288.5c-1.3,0-2.4,1.1-2.4,2.4v4.4c0-1.3,1.1-2.4,2.4-2.4s2.4,1.1,2.4,2.4v-4.4
		C285.9,289.5,284.8,288.5,283.5,288.5z"/>
	<path class="st2" d="M300.1,288.5c-1.3,0-2.4,1.1-2.4,2.4v4.4c0-1.3,1.1-2.4,2.4-2.4s2.4,1.1,2.4,2.4v-4.4
		C302.5,289.5,301.4,288.5,300.1,288.5z"/>
	<path class="st2" d="M316.8,288.5c-1.3,0-2.4,1.1-2.4,2.4v4.4c0-1.3,1.1-2.4,2.4-2.4s2.4,1.1,2.4,2.4v-4.4
		C319.2,289.5,318.1,288.5,316.8,288.5z"/>
	<path class="st5" d="M185.8,324.1c0,1.3-1.1,2.4-2.4,2.4s-2.4-1.1-2.4-2.4v5.7h4.8V324.1z"/>
	<path class="st5" d="M202.6,324.1c0,1.3-1.1,2.4-2.4,2.4s-2.4-1.1-2.4-2.4v5.7h4.8V324.1z"/>
	<path class="st2" d="M219.2,324.1c0,1.3-1.1,2.4-2.4,2.4s-2.4-1.1-2.4-2.4v5.7h4.8V324.1z"/>
	<path class="st2" d="M235.8,324.1c0,1.3-1.1,2.4-2.4,2.4s-2.4-1.1-2.4-2.4v5.7h4.8V324.1z"/>
	<path class="st2" d="M252.6,324.1c0,1.3-1.1,2.4-2.4,2.4s-2.4-1.1-2.4-2.4v5.7h4.8V324.1z"/>
	<path class="st2" d="M269.2,324.1c0,1.3-1.1,2.4-2.4,2.4s-2.4-1.1-2.4-2.4v5.7h4.8V324.1z"/>
	<path class="st2" d="M285.9,324.1c0,1.3-1.1,2.4-2.4,2.4s-2.4-1.1-2.4-2.4v5.7h4.8V324.1z"/>
	<path class="st2" d="M302.5,324.1c0,1.3-1.1,2.4-2.4,2.4s-2.4-1.1-2.4-2.4v5.7h4.8V324.1z"/>
	<path class="st2" d="M319.2,324.1c0,1.3-1.1,2.4-2.4,2.4s-2.4-1.1-2.4-2.4v5.7h4.8V324.1z"/>
	<path class="st3" d="M177.2,345.9c-1.9,0-3.5-1.6-3.5-3.5V329h152.9v13.4c0,1.9-1.6,3.5-3.5,3.5H177.2z"/>
	<path class="st1" d="M325.8,329.8v12.6c0,1.5-1.2,2.7-2.7,2.7H177.2c-1.5,0-2.7-1.2-2.7-2.7v-12.6H325.8 M327.4,328.3h-1.5H174.4
		h-1.5v1.5v12.6c0,2.4,1.9,4.3,4.3,4.3h145.9c2.4,0,4.3-1.9,4.3-4.3v-12.6L327.4,328.3L327.4,328.3z"/>
	<rect x="173.7" y="398.2" class="st2" width="152.9" height="129.3"/>
	<path class="st1" d="M325.8,398.9v127.7H174.4V398.9H325.8 M327.4,397.4h-1.5H174.4h-1.5v1.5v127.7v1.5h1.5h151.4h1.5v-1.5V398.9
		V397.4z"/>
	<path class="st6" d="M189.7,377.8c0-6,4.8-10.8,10.8-10.8h-15.3c-6,0-10.8,4.8-10.8,10.8v19.7h15.3V377.8z"/>
	<path class="st6" d="M174.4,543.2v6.7c0,5.1,4.1,9.2,9.2,9.2h15.3c-5.1,0-9.2-4.1-9.2-9.2v-6.7H174.4z"/>
	<rect x="174.4" y="398.9" class="st5" width="15.3" height="127.7"/>
	<rect x="173.7" y="537.2" class="st2" width="152.9" height="5.3"/>
	<path class="st1" d="M325.8,538v3.8H174.4V538H325.8 M327.4,536.5h-1.5H174.4h-1.5v1.5v3.8v1.5h1.5h151.4h1.5v-1.5V538V536.5z"/>
	<rect x="174.4" y="528.2" class="st6" width="15.3" height="8.2"/>
	<rect x="174.4" y="538" class="st5" width="15.3" height="3.8"/>
	<path class="st4" d="M318.2,377.8c0-6-4.8-10.8-10.8-10.8h7.6c6,0,10.8,4.8,10.8,10.8v19.7h-7.6V377.8z"/>
	<path class="st4" d="M325.8,543.2v6.7c0,5.1-4.1,9.2-9.2,9.2H309c5.1,0,9.2-4.1,9.2-9.2v-6.7H325.8z"/>
	<rect x="318.2" y="398.9" class="st0" width="7.6" height="127.7"/>
	<rect x="318.2" y="528.2" class="st4" width="7.6" height="8.2"/>
	<rect x="318.2" y="538" class="st7" width="7.6" height="3.8"/>
	<rect x="174.4" y="439.8" class="st8" width="151.4" height="46.1"/>
	<rect x="174.4" y="439.8" class="st2" width="15.3" height="46.1"/>
	<rect x="318.2" y="439.8" class="st4" width="7.6" height="46.1"/>
	<rect x="-79.7" y="344.6" class="st0" width="125.7" height="22.9"/>
	<path class="st1" d="M45.5,345.2v21.7H-79v-21.7H45.5 M46.6,344h-1.2H-79h-1.2v1.2v21.7v1.2h1.2H45.5h1.2v-1.2v-21.7V344z"/>
	<rect x="-79" y="345.2" class="st2" width="124.5" height="5.9"/>
	<path class="st3" d="M-89.8,345.9c-1.9,0-3.5-1.6-3.5-3.5v-54.7c0-3.7,3-6.7,6.7-6.7H53c3.7,0,6.7,3,6.7,6.7v54.8
		c0,1.9-1.6,3.5-3.5,3.5H-89.8V345.9z"/>
	<path class="st1" d="M53,281.8c3.3,0,5.9,2.7,5.9,5.9v54.8c0,1.5-1.2,2.7-2.7,2.7H-89.8c-1.5,0-2.7-1.2-2.7-2.7v-54.7
		c0-3.3,2.7-5.9,5.9-5.9L53,281.8 M53,280.2H-86.5c-4.2,0-7.5,3.3-7.5,7.5v54.8c0,2.4,1.9,4.3,4.3,4.3H56.1c2.4,0,4.3-1.9,4.3-4.3
		v-54.8C60.3,283.5,57.1,280.2,53,280.2z"/>
	<path class="st4" d="M53,281.8H-86.5c-3.3,0-5.9,2.7-5.9,5.9v1.6c0-3.3,2.7-5.9,5.9-5.9H53c3.3,0,5.9,2.7,5.9,5.9v-1.5
		C58.8,284.4,56.1,281.8,53,281.8z"/>
	<path class="st0" d="M-83.2,560c-5.5,0-10-4.5-10-10V377.8c0-6.4,5.2-11.6,11.6-11.6H48.1c6.4,0,11.6,5.2,11.6,11.6V550
		c0,5.5-4.5,10-10,10H-83.2z"/>
	<path class="st1" d="M48.1,366.9c6,0,10.8,4.8,10.8,10.8V550c0,5.1-4.1,9.2-9.2,9.2H-83.2c-5.1,0-9.2-4.1-9.2-9.2V377.8
		c0-6,4.8-10.8,10.8-10.8H48.1 M48.1,365.4H-81.8c-6.8,0-12.3,5.5-12.3,12.3V550c0,5.9,4.8,10.8,10.8,10.8H49.6
		c5.9,0,10.8-4.8,10.8-10.8V377.8C60.3,370.9,54.8,365.4,48.1,365.4z"/>
	<path class="st4" d="M48.1,366.9H-81.8c-6,0-10.8,4.8-10.8,10.8v1.5c0-6,4.8-10.8,10.8-10.8H48.1c6,0,10.8,4.8,10.8,10.8v-1.5
		C58.8,371.8,54.1,366.9,48.1,366.9z"/>
	<path class="st0" d="M-83.4,344.4c-1.7,0-3.2-1.4-3.2-3.2v-50.3c0-1.7,1.4-3.2,3.2-3.2c1.7,0,3.2,1.4,3.2,3.2v50.4
		C-80.2,343-81.8,344.4-83.4,344.4z"/>
	<path class="st1" d="M-83.4,288.5c1.3,0,2.4,1.1,2.4,2.4v50.4c0,1.3-1.1,2.4-2.4,2.4c-1.3,0-2.4-1.1-2.4-2.4v-50.4
		C-85.8,289.5-84.8,288.5-83.4,288.5 M-83.4,286.9c-2.2,0-3.9,1.8-3.9,3.9v50.4c0,2.2,1.8,3.9,3.9,3.9c2.2,0,3.9-1.8,3.9-3.9v-50.3
		C-79.5,288.8-81.2,286.9-83.4,286.9z"/>
	<path class="st2" d="M-83.4,288.5c-1.3,0-2.4,1.1-2.4,2.4v4.4c0-1.3,1.1-2.4,2.4-2.4s2.4,1.1,2.4,2.4v-4.4
		C-81,289.5-82.2,288.5-83.4,288.5z"/>
	<path class="st0" d="M-66.8,344.4c-1.7,0-3.2-1.4-3.2-3.2v-50.3c0-1.7,1.4-3.2,3.2-3.2s3.2,1.4,3.2,3.2v50.4
		C-63.6,343-65,344.4-66.8,344.4z"/>
	<path class="st1" d="M-66.8,288.5c1.3,0,2.4,1.1,2.4,2.4v50.4c0,1.3-1.1,2.4-2.4,2.4c-1.3,0-2.4-1.1-2.4-2.4v-50.4
		C-69.2,289.5-68.2,288.5-66.8,288.5 M-66.8,286.9c-2.2,0-3.9,1.8-3.9,3.9v50.4c0,2.2,1.8,3.9,3.9,3.9c2.2,0,3.9-1.8,3.9-3.9v-50.3
		C-62.8,288.8-64.7,286.9-66.8,286.9z"/>
	<path class="st0" d="M-50.1,344.4c-1.7,0-3.2-1.4-3.2-3.2v-50.3c0-1.7,1.4-3.2,3.2-3.2s3.2,1.4,3.2,3.2v50.4
		C-47,343-48.5,344.4-50.1,344.4z"/>
	<path class="st1" d="M-50.1,288.5c1.3,0,2.4,1.1,2.4,2.4v50.4c0,1.3-1.1,2.4-2.4,2.4s-2.4-1.1-2.4-2.4v-50.4
		C-52.5,289.5-51.5,288.5-50.1,288.5 M-50.1,286.9c-2.2,0-3.9,1.8-3.9,3.9v50.4c0,2.2,1.8,3.9,3.9,3.9c2.2,0,3.9-1.8,3.9-3.9v-50.3
		C-46.2,288.8-48,286.9-50.1,286.9z"/>
	<path class="st0" d="M-33.5,344.4c-1.7,0-3.2-1.4-3.2-3.2v-50.3c0-1.7,1.4-3.2,3.2-3.2c1.7,0,3.2,1.4,3.2,3.2v50.4
		C-30.3,343-31.7,344.4-33.5,344.4z"/>
	<path class="st1" d="M-33.5,288.5c1.3,0,2.4,1.1,2.4,2.4v50.4c0,1.3-1.1,2.4-2.4,2.4s-2.4-1.1-2.4-2.4v-50.4
		C-36,289.5-34.8,288.5-33.5,288.5 M-33.5,286.9c-2.2,0-3.9,1.8-3.9,3.9v50.4c0,2.2,1.8,3.9,3.9,3.9s3.9-1.8,3.9-3.9v-50.3
		C-29.5,288.8-31.3,286.9-33.5,286.9z"/>
	<path class="st0" d="M-16.9,344.4c-1.8,0-3.2-1.4-3.2-3.2v-50.3c0-1.7,1.4-3.2,3.2-3.2c1.7,0,3.2,1.4,3.2,3.2v50.4
		C-13.6,343-15,344.4-16.9,344.4z"/>
	<path class="st1" d="M-16.9,288.5c1.3,0,2.4,1.1,2.4,2.4v50.4c0,1.3-1.1,2.4-2.4,2.4s-2.4-1.1-2.4-2.4v-50.4
		C-19.2,289.5-18.1,288.5-16.9,288.5 M-16.9,286.9c-2.2,0-3.9,1.8-3.9,3.9v50.4c0,2.2,1.8,3.9,3.9,3.9c2.2,0,3.9-1.8,3.9-3.9v-50.3
		C-12.9,288.8-14.6,286.9-16.9,286.9z"/>
	<path class="st0" d="M-0.1,344.4c-1.7,0-3.2-1.4-3.2-3.2v-50.3c0-1.7,1.4-3.2,3.2-3.2s3.2,1.4,3.2,3.2v50.4
		C3,343,1.6,344.4-0.1,344.4z"/>
	<path class="st1" d="M-0.1,288.5c1.3,0,2.4,1.1,2.4,2.4v50.4c0,1.3-1.1,2.4-2.4,2.4s-2.4-1.1-2.4-2.4v-50.4
		C-2.5,289.5-1.5,288.5-0.1,288.5 M-0.1,286.9c-2.2,0-3.9,1.8-3.9,3.9v50.4c0,2.2,1.8,3.9,3.9,3.9c2.2,0,3.9-1.8,3.9-3.9v-50.3
		C3.8,288.8,2,286.9-0.1,286.9z"/>
	<path class="st0" d="M16.5,344.4c-1.7,0-3.2-1.4-3.2-3.2v-50.3c0-1.7,1.4-3.2,3.2-3.2s3.2,1.4,3.2,3.2v50.4
		C19.6,343,18.3,344.4,16.5,344.4z"/>
	<path class="st1" d="M16.5,288.5c1.3,0,2.4,1.1,2.4,2.4v50.4c0,1.3-1.1,2.4-2.4,2.4s-2.4-1.1-2.4-2.4v-50.4
		C14.1,289.5,15.1,288.5,16.5,288.5 M16.5,286.9c-2.2,0-3.9,1.8-3.9,3.9v50.4c0,2.2,1.8,3.9,3.9,3.9c2.2,0,3.9-1.8,3.9-3.9v-50.3
		C20.5,288.8,18.6,286.9,16.5,286.9z"/>
	<path class="st0" d="M33.1,344.4c-1.8,0-3.2-1.4-3.2-3.2v-50.3c0-1.7,1.4-3.2,3.2-3.2c1.7,0,3.2,1.4,3.2,3.2v50.4
		C36.3,343,34.8,344.4,33.1,344.4z"/>
	<path class="st1" d="M33.1,288.5c1.3,0,2.4,1.1,2.4,2.4v50.4c0,1.3-1.1,2.4-2.4,2.4c-1.3,0-2.4-1.1-2.4-2.4v-50.4
		C30.8,289.5,31.9,288.5,33.1,288.5 M33.1,286.9c-2.2,0-3.9,1.8-3.9,3.9v50.4c0,2.2,1.8,3.9,3.9,3.9c2.2,0,3.9-1.8,3.9-3.9v-50.3
		C37.1,288.8,35.3,286.9,33.1,286.9z"/>
	<path class="st2" d="M49.8,344.4c-1.7,0-3.2-1.4-3.2-3.2v-50.3c0-1.7,1.4-3.2,3.2-3.2s3.2,1.4,3.2,3.2v50.4
		C53,343,51.6,344.4,49.8,344.4z"/>
	<path class="st1" d="M49.8,288.5c1.3,0,2.4,1.1,2.4,2.4v50.4c0,1.3-1.1,2.4-2.4,2.4s-2.4-1.1-2.4-2.4v-50.4
		C47.3,289.5,48.5,288.5,49.8,288.5 M49.8,286.9c-2.2,0-3.9,1.8-3.9,3.9v50.4c0,2.2,1.8,3.9,3.9,3.9c2.2,0,3.9-1.8,3.9-3.9v-50.3
		C53.8,288.8,52,286.9,49.8,286.9z"/>
	<path class="st2" d="M-66.8,288.5c-1.3,0-2.4,1.1-2.4,2.4v4.4c0-1.3,1.1-2.4,2.4-2.4c1.3,0,2.4,1.1,2.4,2.4v-4.4
		C-64.3,289.5-65.4,288.5-66.8,288.5z"/>
	<path class="st2" d="M-50.1,288.5c-1.3,0-2.4,1.1-2.4,2.4v4.4c0-1.3,1.1-2.4,2.4-2.4c1.3,0,2.4,1.1,2.4,2.4v-4.4
		C-47.8,289.5-48.8,288.5-50.1,288.5z"/>
	<path class="st2" d="M-33.5,288.5c-1.3,0-2.4,1.1-2.4,2.4v4.4c0-1.3,1.1-2.4,2.4-2.4c1.3,0,2.4,1.1,2.4,2.4v-4.4
		C-31,289.5-32.1,288.5-33.5,288.5z"/>
	<path class="st2" d="M-16.9,288.5c-1.3,0-2.4,1.1-2.4,2.4v4.4c0-1.3,1.1-2.4,2.4-2.4s2.4,1.1,2.4,2.4v-4.4
		C-14.4,289.5-15.5,288.5-16.9,288.5z"/>
	<path class="st2" d="M-0.1,288.5c-1.3,0-2.4,1.1-2.4,2.4v4.4c0-1.3,1.1-2.4,2.4-2.4s2.4,1.1,2.4,2.4v-4.4
		C2.3,289.5,1.1,288.5-0.1,288.5z"/>
	<path class="st2" d="M16.5,288.5c-1.3,0-2.4,1.1-2.4,2.4v4.4c0-1.3,1.1-2.4,2.4-2.4s2.4,1.1,2.4,2.4v-4.4
		C18.9,289.5,17.9,288.5,16.5,288.5z"/>
	<path class="st5" d="M33.1,288.5c-1.3,0-2.4,1.1-2.4,2.4v4.4c0-1.3,1.1-2.4,2.4-2.4c1.3,0,2.4,1.1,2.4,2.4v-4.4
		C35.6,289.5,34.5,288.5,33.1,288.5z"/>
	<path class="st5" d="M49.8,288.5c-1.3,0-2.4,1.1-2.4,2.4v4.4c0-1.3,1.1-2.4,2.4-2.4c1.3,0,2.4,1.1,2.4,2.4v-4.4
		C52.3,289.5,51.1,288.5,49.8,288.5z"/>
	<path class="st2" d="M-81,324.1c0,1.3-1.1,2.4-2.4,2.4c-1.3,0-2.4-1.1-2.4-2.4v5.7h4.8V324.1z"/>
	<path class="st2" d="M-64.3,324.1c0,1.3-1.1,2.4-2.4,2.4c-1.3,0-2.4-1.1-2.4-2.4v5.7h4.8V324.1z"/>
	<path class="st2" d="M-47.8,324.1c0,1.3-1.1,2.4-2.4,2.4c-1.3,0-2.4-1.1-2.4-2.4v5.7h4.8C-47.8,329.8-47.8,324.1-47.8,324.1z"/>
	<path class="st2" d="M-31,324.1c0,1.3-1.1,2.4-2.4,2.4c-1.3,0-2.4-1.1-2.4-2.4v5.7h4.8V324.1z"/>
	<path class="st2" d="M-14.4,324.1c0,1.3-1.1,2.4-2.4,2.4s-2.4-1.1-2.4-2.4v5.7h4.8V324.1z"/>
	<path class="st2" d="M2.3,324.1c0,1.3-1.1,2.4-2.4,2.4s-2.4-1.1-2.4-2.4v5.7h4.8V324.1z"/>
	<path class="st2" d="M18.9,324.1c0,1.3-1.1,2.4-2.4,2.4s-2.4-1.1-2.4-2.4v5.7h4.8V324.1z"/>
	<path class="st5" d="M35.6,324.1c0,1.3-1.1,2.4-2.4,2.4c-1.3,0-2.4-1.1-2.4-2.4v5.7h4.8V324.1z"/>
	<path class="st5" d="M52.3,324.1c0,1.3-1.1,2.4-2.4,2.4c-1.3,0-2.4-1.1-2.4-2.4v5.7h4.8L52.3,324.1L52.3,324.1z"/>
	<path class="st3" d="M-89.8,345.9c-1.9,0-3.5-1.6-3.5-3.5V329H59.6v13.4c0,1.9-1.6,3.5-3.5,3.5H-89.8z"/>
	<path class="st1" d="M58.8,329.8v12.6c0,1.5-1.2,2.7-2.7,2.7H-89.8c-1.5,0-2.7-1.2-2.7-2.7v-12.6H58.8 M60.3,328.3h-1.5H-92.5H-94
		v1.5v12.6c0,2.4,1.9,4.3,4.3,4.3H56.1c2.4,0,4.3-1.9,4.3-4.3v-12.6v-1.5H60.3z"/>
	<rect x="-93.2" y="398.2" class="st2" width="152.9" height="129.3"/>
	<path class="st1" d="M58.8,398.9v127.7H-92.5V398.9H58.8 M60.3,397.4h-1.5H-92.5H-94v1.5v127.7v1.5h1.5H58.8h1.5v-1.5V398.9V397.4z
		"/>
	<path class="st6" d="M-77.2,377.8c0-6,4.8-10.8,10.8-10.8h-15.3c-6,0-10.8,4.8-10.8,10.8v19.7h15.3V377.8z"/>
	<path class="st6" d="M-92.5,543.2v6.7c0,5.1,4.1,9.2,9.2,9.2H-68c-5.1,0-9.2-4.1-9.2-9.2v-6.7H-92.5z"/>
	<rect x="-92.5" y="398.9" class="st9" width="15.3" height="127.7"/>
	<rect x="-93.2" y="537.2" class="st2" width="152.9" height="5.3"/>
	<path class="st1" d="M58.8,538v3.8H-92.5V538H58.8 M60.3,536.5h-1.5H-92.5H-94v1.5v3.8v1.5h1.5H58.8h1.5v-1.5V538V536.5z"/>
	<rect x="-92.5" y="528.2" class="st6" width="15.3" height="8.2"/>
	<rect x="-92.5" y="538" class="st9" width="15.3" height="3.8"/>
	<path class="st4" d="M51.3,377.8c0-6-4.8-10.8-10.8-10.8h7.6c6,0,10.8,4.8,10.8,10.8v19.7h-7.6V377.8z"/>
	<path class="st4" d="M58.8,543.2v6.7c0,5.1-4.1,9.2-9.2,9.2H42c5.1,0,9.2-4.1,9.2-9.2v-6.7H58.8z"/>
	<rect x="51.3" y="398.9" class="st7" width="7.6" height="127.7"/>
	<rect x="51.3" y="528.2" class="st4" width="7.6" height="8.2"/>
	<rect x="51.3" y="538" class="st7" width="7.6" height="3.8"/>
	<rect x="-92.5" y="439.8" class="st8" width="151.4" height="46.1"/>
	<rect x="-92.5" y="439.8" class="st2" width="15.3" height="46.1"/>
	<rect x="51.3" y="439.8" class="st4" width="7.6" height="46.1"/>
	<rect x="34.3" y="297.6" class="st0" width="164.8" height="30"/>
	<path class="st1" d="M198.2,298.4v28.5H35v-28.5H198.2 M199.8,296.8h-1.6H35h-1.6v1.6v28.5v1.6H35h163.3h1.6v-1.6v-28.5V296.8z"/>
	<rect x="35" y="298.4" class="st2" width="163.3" height="7.7"/>
	<path class="st3" d="M21,299.4c-2.5,0-4.6-2.1-4.6-4.6V223c0-4.8,3.9-8.8,8.8-8.8h182.9c4.8,0,8.8,3.9,8.8,8.8v71.8
		c0,2.5-2.1,4.6-4.6,4.6C212.2,299.4,21,299.4,21,299.4z"/>
	<path class="st1" d="M208.1,215.2c4.3,0,7.8,3.5,7.8,7.8v71.8c0,2-1.6,3.6-3.6,3.6H21c-2,0-3.6-1.6-3.6-3.6V223
		c0-4.3,3.5-7.8,7.8-7.8H208.1 M208.1,213.2H25.1c-5.4,0-9.8,4.4-9.8,9.8v71.8c0,3.1,2.5,5.6,5.6,5.6h191.3c3.1,0,5.6-2.5,5.6-5.6
		V223C217.8,217.6,213.4,213.2,208.1,213.2z"/>
	<path class="st4" d="M208.1,215.2H25.1c-4.3,0-7.8,3.5-7.8,7.8v2c0-4.3,3.5-7.8,7.8-7.8H208c4.3,0,7.8,3.5,7.8,7.8v-2
		C215.8,218.7,212.3,215.2,208.1,215.2z"/>
	<path class="st0" d="M29.6,580c-7.2,0-13.1-5.9-13.1-13.1V341c0-8.4,6.8-15.2,15.2-15.2h170.2c8.4,0,15.2,6.8,15.2,15.2v225.8
		c0,7.2-5.9,13.1-13.1,13.1H29.6z"/>
	<path class="st1" d="M201.7,326.9c7.8,0,14.2,6.3,14.2,14.2V567c0,6.7-5.4,12.1-12.1,12.1H29.6c-6.7,0-12.1-5.4-12.1-12.1V341
		c0-7.8,6.3-14.2,14.2-14.2h170.1 M201.7,324.9H31.6c-8.9,0-16.2,7.2-16.2,16.2V567c0,7.8,6.3,14.1,14.1,14.1h174.3
		c7.8,0,14.1-6.3,14.1-14.1V341C217.8,332.1,210.7,324.9,201.7,324.9z"/>
	<path class="st4" d="M201.7,326.9H31.6c-7.8,0-14.2,6.3-14.2,14.2v2c0-7.8,6.3-14.2,14.2-14.2h170.2c7.8,0,14.2,6.3,14.2,14.2v-2
		C215.8,333.2,209.6,326.9,201.7,326.9z"/>
	<path class="st0" d="M29.3,297.4c-2.3,0-4.2-1.9-4.2-4.2v-66c0-2.3,1.9-4.2,4.2-4.2c2.3,0,4.2,1.9,4.2,4.2v66.1
		C33.5,295.6,31.6,297.4,29.3,297.4z"/>
	<path class="st1" d="M29.3,224c1.7,0,3.2,1.4,3.2,3.2v66.1c0,1.7-1.4,3.2-3.2,3.2c-1.7,0-3.2-1.4-3.2-3.2v-66.1
		C26.1,225.4,27.6,224,29.3,224 M29.3,222c-2.8,0-5.2,2.3-5.2,5.2v66.1c0,2.8,2.3,5.2,5.2,5.2c2.8,0,5.2-2.3,5.2-5.2v-66.1
		C34.5,224.3,32.1,222,29.3,222z"/>
	<path class="st2" d="M29.3,224c-1.7,0-3.2,1.4-3.2,3.2v5.8c0-1.7,1.4-3.2,3.2-3.2c1.7,0,3.2,1.4,3.2,3.2v-5.8
		C32.5,225.4,31.1,224,29.3,224z"/>
	<path class="st0" d="M51.1,297.4c-2.3,0-4.2-1.9-4.2-4.2v-66c0-2.3,1.9-4.2,4.2-4.2s4.2,1.9,4.2,4.2v66.1
		C55.3,295.6,53.5,297.4,51.1,297.4z"/>
	<path class="st1" d="M51.1,224c1.7,0,3.2,1.4,3.2,3.2v66.1c0,1.7-1.4,3.2-3.2,3.2c-1.7,0-3.2-1.4-3.2-3.2v-66.1
		C48,225.4,49.3,224,51.1,224 M51.1,222c-2.8,0-5.2,2.3-5.2,5.2v66.1c0,2.8,2.3,5.2,5.2,5.2c2.8,0,5.2-2.3,5.2-5.2v-66.1
		C56.3,224.3,54,222,51.1,222z"/>
	<path class="st0" d="M73,297.4c-2.3,0-4.2-1.9-4.2-4.2v-66c0-2.3,1.9-4.2,4.2-4.2s4.2,1.9,4.2,4.2v66.1
		C77.2,295.6,75.3,297.4,73,297.4z"/>
	<path class="st1" d="M73,224c1.7,0,3.2,1.4,3.2,3.2v66.1c0,1.7-1.4,3.2-3.2,3.2s-3.2-1.4-3.2-3.2v-66.1C69.8,225.4,71.3,224,73,224
		 M73,222c-2.8,0-5.2,2.3-5.2,5.2v66.1c0,2.8,2.3,5.2,5.2,5.2c2.8,0,5.2-2.3,5.2-5.2v-66.1C78.2,224.3,75.8,222,73,222z"/>
	<path class="st0" d="M94.8,297.4c-2.3,0-4.2-1.9-4.2-4.2v-66c0-2.3,1.9-4.2,4.2-4.2s4.2,1.9,4.2,4.2v66.1
		C99,295.6,97.1,297.4,94.8,297.4z"/>
	<path class="st1" d="M94.8,224c1.7,0,3.2,1.4,3.2,3.2v66.1c0,1.7-1.4,3.2-3.2,3.2s-3.2-1.4-3.2-3.2v-66.1
		C91.7,225.4,93.1,224,94.8,224 M94.8,222c-2.8,0-5.2,2.3-5.2,5.2v66.1c0,2.8,2.3,5.2,5.2,5.2s5.2-2.3,5.2-5.2v-66.1
		C100,224.3,97.7,222,94.8,222z"/>
	<path class="st0" d="M116.7,297.4c-2.3,0-4.2-1.9-4.2-4.2v-66c0-2.3,1.9-4.2,4.2-4.2s4.2,1.9,4.2,4.2v66.1
		C120.8,295.6,119,297.4,116.7,297.4z"/>
	<path class="st1" d="M116.7,224c1.7,0,3.2,1.4,3.2,3.2v66.1c0,1.7-1.4,3.2-3.2,3.2c-1.7,0-3.2-1.4-3.2-3.2v-66.1
		C113.5,225.4,114.8,224,116.7,224 M116.7,222c-2.8,0-5.2,2.3-5.2,5.2v66.1c0,2.8,2.3,5.2,5.2,5.2c2.8,0,5.2-2.3,5.2-5.2v-66.1
		C121.8,224.3,119.5,222,116.7,222z"/>
	<path class="st0" d="M138.4,297.4c-2.3,0-4.2-1.9-4.2-4.2v-66c0-2.3,1.9-4.2,4.2-4.2s4.2,1.9,4.2,4.2v66.1
		C142.6,295.6,140.8,297.4,138.4,297.4z"/>
	<path class="st1" d="M138.4,224c1.7,0,3.2,1.4,3.2,3.2v66.1c0,1.7-1.4,3.2-3.2,3.2s-3.2-1.4-3.2-3.2v-66.1
		C135.3,225.4,136.8,224,138.4,224 M138.4,222c-2.8,0-5.2,2.3-5.2,5.2v66.1c0,2.8,2.3,5.2,5.2,5.2c2.8,0,5.2-2.3,5.2-5.2v-66.1
		C143.6,224.3,141.3,222,138.4,222z"/>
	<path class="st0" d="M160.3,297.4c-2.3,0-4.2-1.9-4.2-4.2v-66c0-2.3,1.9-4.2,4.2-4.2c2.3,0,4.2,1.9,4.2,4.2v66.1
		C164.4,295.6,162.7,297.4,160.3,297.4z"/>
	<path class="st1" d="M160.3,224c1.7,0,3.2,1.4,3.2,3.2v66.1c0,1.7-1.4,3.2-3.2,3.2c-1.7,0-3.2-1.4-3.2-3.2v-66.1
		C157.1,225.4,158.6,224,160.3,224 M160.3,222c-2.8,0-5.2,2.3-5.2,5.2v66.1c0,2.8,2.3,5.2,5.2,5.2c2.8,0,5.2-2.3,5.2-5.2v-66.1
		C165.4,224.3,163.2,222,160.3,222z"/>
	<path class="st0" d="M182.2,297.4c-2.3,0-4.2-1.9-4.2-4.2v-66c0-2.3,1.9-4.2,4.2-4.2c2.3,0,4.2,1.9,4.2,4.2v66.1
		C186.3,295.6,184.4,297.4,182.2,297.4z"/>
	<path class="st1" d="M182.2,224c1.7,0,3.2,1.4,3.2,3.2v66.1c0,1.7-1.4,3.2-3.2,3.2c-1.7,0-3.2-1.4-3.2-3.2v-66.1
		C178.9,225.4,180.4,224,182.2,224 M182.2,222c-2.8,0-5.2,2.3-5.2,5.2v66.1c0,2.8,2.3,5.2,5.2,5.2c2.8,0,5.2-2.3,5.2-5.2v-66.1
		C187.3,224.3,184.9,222,182.2,222z"/>
	<path class="st0" d="M203.9,297.4c-2.3,0-4.2-1.9-4.2-4.2v-66c0-2.3,1.9-4.2,4.2-4.2c2.3,0,4.2,1.9,4.2,4.2v66.1
		C208.2,295.6,206.2,297.4,203.9,297.4z"/>
	<path class="st1" d="M203.9,224c1.7,0,3.2,1.4,3.2,3.2v66.1c0,1.7-1.4,3.2-3.2,3.2s-3.2-1.4-3.2-3.2v-66.1
		C200.8,225.4,202.2,224,203.9,224 M203.9,222c-2.8,0-5.2,2.3-5.2,5.2v66.1c0,2.8,2.3,5.2,5.2,5.2c2.8,0,5.2-2.3,5.2-5.2v-66.1
		C209.2,224.3,206.8,222,203.9,222z"/>
	<path class="st2" d="M51.1,224c-1.7,0-3.2,1.4-3.2,3.2v5.8c0-1.7,1.4-3.2,3.2-3.2c1.7,0,3.2,1.4,3.2,3.2v-5.8
		C54.3,225.4,52.8,224,51.1,224z"/>
	<path class="st2" d="M73,224c-1.7,0-3.2,1.4-3.2,3.2v5.8c0-1.7,1.4-3.2,3.2-3.2c1.7,0,3.2,1.4,3.2,3.2v-5.8
		C76.2,225.4,74.7,224,73,224z"/>
	<path class="st2" d="M94.8,224c-1.7,0-3.2,1.4-3.2,3.2v5.8c0-1.7,1.4-3.2,3.2-3.2c1.7,0,3.2,1.4,3.2,3.2v-5.8
		C98,225.4,96.6,224,94.8,224z"/>
	<path class="st2" d="M116.7,224c-1.7,0-3.2,1.4-3.2,3.2v5.8c0-1.7,1.4-3.2,3.2-3.2c1.7,0,3.2,1.4,3.2,3.2v-5.8
		C119.8,225.4,118.3,224,116.7,224z"/>
	<path class="st2" d="M138.4,224c-1.7,0-3.2,1.4-3.2,3.2v5.8c0-1.7,1.4-3.2,3.2-3.2c1.7,0,3.2,1.4,3.2,3.2v-5.8
		C141.6,225.4,140.2,224,138.4,224z"/>
	<path class="st2" d="M160.3,224c-1.7,0-3.2,1.4-3.2,3.2v5.8c0-1.7,1.4-3.2,3.2-3.2c1.7,0,3.2,1.4,3.2,3.2v-5.8
		C163.4,225.4,162.1,224,160.3,224z"/>
	<path class="st2" d="M182.2,224c-1.7,0-3.2,1.4-3.2,3.2v5.8c0-1.7,1.4-3.2,3.2-3.2c1.7,0,3.2,1.4,3.2,3.2v-5.8
		C185.3,225.4,183.8,224,182.2,224z"/>
	<path class="st2" d="M203.9,224c-1.7,0-3.2,1.4-3.2,3.2v5.8c0-1.7,1.4-3.2,3.2-3.2c1.7,0,3.2,1.4,3.2,3.2v-5.8
		C207.2,225.4,205.7,224,203.9,224z"/>
	<path class="st2" d="M32.5,270.8c0,1.7-1.4,3.2-3.2,3.2c-1.7,0-3.2-1.4-3.2-3.2v7.5h6.3L32.5,270.8L32.5,270.8z"/>
	<path class="st2" d="M54.3,270.8c0,1.7-1.4,3.2-3.2,3.2c-1.7,0-3.2-1.4-3.2-3.2v7.5h6.3L54.3,270.8L54.3,270.8z"/>
	<path class="st2" d="M76.2,270.8c0,1.7-1.4,3.2-3.2,3.2c-1.7,0-3.2-1.4-3.2-3.2v7.5h6.3L76.2,270.8L76.2,270.8z"/>
	<path class="st2" d="M98,270.8c0,1.7-1.4,3.2-3.2,3.2c-1.7,0-3.2-1.4-3.2-3.2v7.5h6.3L98,270.8L98,270.8z"/>
	<path class="st2" d="M119.8,270.8c0,1.7-1.4,3.2-3.2,3.2c-1.7,0-3.2-1.4-3.2-3.2v7.5h6.3L119.8,270.8L119.8,270.8z"/>
	<path class="st2" d="M141.6,270.8c0,1.7-1.4,3.2-3.2,3.2c-1.7,0-3.2-1.4-3.2-3.2v7.5h6.3L141.6,270.8L141.6,270.8z"/>
	<path class="st2" d="M163.4,270.8c0,1.7-1.4,3.2-3.2,3.2c-1.7,0-3.2-1.4-3.2-3.2v7.5h6.3v-7.5H163.4z"/>
	<path class="st2" d="M185.3,270.8c0,1.7-1.4,3.2-3.2,3.2c-1.7,0-3.2-1.4-3.2-3.2v7.5h6.3v-7.5H185.3z"/>
	<path class="st2" d="M207.2,270.8c0,1.7-1.4,3.2-3.2,3.2c-1.7,0-3.2-1.4-3.2-3.2v7.5h6.3v-7.5H207.2z"/>
	<path class="st3" d="M21,299.4c-2.5,0-4.6-2.1-4.6-4.6v-17.5h200.5v17.5c0,2.5-2.1,4.6-4.6,4.6H21z"/>
	<path class="st1" d="M215.8,278.3v16.5c0,2-1.6,3.6-3.6,3.6H21c-2,0-3.6-1.6-3.6-3.6v-16.5H215.8 M217.8,276.3h-2H17.4h-2v2v16.5
		c0,3.1,2.5,5.6,5.6,5.6h191.3c3.1,0,5.6-2.5,5.6-5.6v-16.5V276.3z"/>
	<rect x="16.4" y="367.9" class="st2" width="200.5" height="169.5"/>
	<path class="st1" d="M215.8,368.9v167.5H17.4V368.9H215.8 M217.8,366.9h-2H17.4h-2v2v167.5v2h2h198.5h2v-2V368.9V366.9z"/>
	<path class="st6" d="M37.5,341c0-7.8,6.3-14.2,14.2-14.2h-20c-7.8,0-14.2,6.3-14.2,14.2v25.9h20V341z"/>
	<path class="st6" d="M17.4,558.1v8.7c0,6.7,5.4,12.1,12.1,12.1h20c-6.7,0-12.1-5.4-12.1-12.1v-8.7H17.4z"/>
	<rect x="17.4" y="368.9" class="st9" width="20" height="167.5"/>
	<rect x="16.4" y="550.2" class="st2" width="200.5" height="6.9"/>
	<path class="st1" d="M215.8,551.2v4.9H17.4v-4.9H215.8 M217.8,549.2h-2H17.4h-2v2v4.9v2h2h198.5h2v-2v-4.9V549.2z"/>
	<rect x="17.4" y="538.5" class="st6" width="20" height="10.8"/>
	<rect x="17.4" y="551.2" class="st9" width="20" height="4.9"/>
	<path class="st4" d="M205.8,341c0-7.8-6.3-14.2-14.2-14.2h10c7.8,0,14.2,6.3,14.2,14.2v25.9h-10V341z"/>
	<path class="st4" d="M215.8,558.1v8.7c0,6.7-5.4,12.1-12.1,12.1h-10c6.7,0,12.1-5.4,12.1-12.1v-8.7H215.8z"/>
	<rect x="205.8" y="368.9" class="st0" width="10" height="167.5"/>
	<rect x="205.8" y="538.5" class="st4" width="10" height="10.8"/>
	<rect x="205.8" y="551.2" class="st7" width="10" height="4.9"/>
	<rect x="17.4" y="422.4" class="st8" width="198.5" height="60.4"/>
	<rect x="17.4" y="422.4" class="st2" width="20" height="60.4"/>
	<rect x="205.8" y="422.4" class="st4" width="10" height="60.4"/>
</g>
</svg>
