<?xml version="1.0" encoding="utf-8"?>
<!-- Generator: Adobe Illustrator 19.1.0, SVG Export Plug-In . SVG Version: 6.00 Build 0)  -->
<svg version="1.1" id="Layer_1" xmlns="http://www.w3.org/2000/svg" xmlns:xlink="http://www.w3.org/1999/xlink" x="0px" y="0px"
	 viewBox="-224 315.2 162.8 162.8" style="enable-background:new -224 315.2 162.8 162.8;" xml:space="preserve">
<style type="text/css">
	.st0{fill:#263238;}
	.st1{fill:#FFFFFF;}
</style>
<g>
	<circle class="st0" cx="-142.6" cy="396.6" r="81.4"/>
	<g>
		<path class="st1" d="M-194.3,373.4l4.8-1.3l5.8,21.7l-4.8,1.3l-2.3-8.5l-8.6,2.3l2.3,8.5l-4.8,1.3l-5.8-21.7l4.8-1.3l2.4,9.1
			l8.6-2.3L-194.3,373.4z"/>
		<path class="st1" d="M-174.8,385.4c1.1,0.8,2.3,1,3.7,0.6c1.4-0.4,2.3-1.2,2.8-2.4c0.5-1.2,0.6-2.7,0.1-4.4l-3.2-12l4.8-1.3
			l3.3,12.1c0.8,3.1,0.6,5.8-0.7,7.9c-1.3,2.2-3.3,3.6-6,4.3c-2.7,0.7-5.2,0.5-7.4-0.8c-2.2-1.2-3.7-3.4-4.6-6.5l-3.3-12.1l4.8-1.3
			l3.2,12C-176.7,383.4-175.9,384.7-174.8,385.4z"/>
		<path class="st1" d="M-142.8,367.3c0.9,3.5,0.2,6.1-2.3,7.8l7.6,6.3l-6,1.6l-6.7-5.6l-3.4,0.9l1.9,6.9l-4.8,1.3l-5.8-21.7l8.2-2.2
			c3.4-0.9,5.9-1,7.7-0.2C-144.7,363.2-143.5,364.8-142.8,367.3z M-148,371.5c0.5-0.7,0.5-1.6,0.2-2.8s-0.8-1.9-1.6-2.2
			c-0.7-0.3-1.9-0.2-3.4,0.2l-3.6,1l1.7,6.4l3.5-0.9C-149.5,372.7-148.4,372.2-148,371.5z"/>
		<path class="st1" d="M-121,361.5c0.9,3.5,0.2,6.1-2.3,7.8l7.6,6.3l-6,1.6l-6.7-5.6l-3.4,0.9l1.9,6.9l-4.8,1.3l-5.8-21.7l8.2-2.2
			c3.4-0.9,5.9-1,7.7-0.2C-122.9,357.3-121.7,359-121,361.5z M-126.2,365.6c0.5-0.7,0.5-1.6,0.2-2.8c-0.3-1.2-0.8-1.9-1.6-2.2
			c-0.7-0.3-1.9-0.2-3.4,0.2l-3.6,1l1.7,6.4l3.5-0.9C-127.7,366.9-126.6,366.3-126.2,365.6z"/>
		<path class="st1" d="M-104.2,372.5l-4.8,1.3l-2.3-8.6l-11-11.1l5.2-1.4l6.8,6.8l2.5-9.3l5.2-1.4l-4,15.1L-104.2,372.5z"/>
		<path class="st1" d="M-101.4,348.5l5.5-1.5l1,3.8l2.1,11.4l-3.7,1l-3.9-10.9L-101.4,348.5z M-95,369.5c-0.7-0.4-1.1-1-1.3-1.7
			c-0.2-0.8-0.1-1.5,0.3-2.2c0.4-0.7,1-1.1,1.7-1.3c0.8-0.2,1.5-0.1,2.2,0.3s1.1,1,1.3,1.7c0.2,0.8,0.1,1.5-0.3,2.2
			c-0.4,0.7-1,1.1-1.7,1.3C-93.6,369.9-94.3,369.9-95,369.5z"/>
	</g>
	<g>
		<path class="st1" d="M-194.3,424.5l4.8-1.3c1.1,4-0.4,6.6-4,7.6c-1.7,0.5-3.3,0.2-4.8-0.6c-1.5-0.9-2.5-2.2-2.9-3.9
			c-0.5-1.7-0.3-3.3,0.6-4.8c0.8-1.5,2.1-2.5,3.8-2.9c1.4-0.4,2.8-0.3,4.2,0.4l-0.6,1c-1.1-0.5-2.2-0.6-3.3-0.3
			c-1.4,0.4-2.4,1.2-3.1,2.4c-0.7,1.2-0.8,2.5-0.5,3.9c0.4,1.4,1.2,2.5,2.3,3.2c1.2,0.7,2.5,0.9,3.9,0.5c2.6-0.7,3.8-2.6,3.3-5
			l-3.5,0.9L-194.3,424.5z"/>
		<path class="st1" d="M-189.3,416.6l6.8-1.8l0.3,1.1l-5.7,1.5l1.2,4.4l5-1.3l0.3,1.1l-5,1.3l1.1,4.2l5.9-1.6l0.3,1.1l-7,1.9
			L-189.3,416.6z"/>
		<path class="st1" d="M-181.2,414.4l8.8-2.4l0.4,1.2l-3.9,1l2.9,10.9l-1.1,0.3l-2.9-10.8l-3.9,1L-181.2,414.4z"/>
		<path class="st1" d="M-161.6,416.1l1.5,5.6l-1.2,0.3l-1.5-5.6l-6.2-5.2l1.4-0.4l5.1,4.2l2.4-6.2l1.4-0.4L-161.6,416.1z"/>
		<path class="st1" d="M-156.6,409.6c0.8-1.5,2.1-2.5,3.8-2.9c1.7-0.5,3.3-0.2,4.8,0.6c1.5,0.9,2.5,2.2,2.9,3.9
			c0.5,1.7,0.3,3.3-0.6,4.8c-0.8,1.5-2.1,2.5-3.8,2.9c-1.7,0.5-3.3,0.2-4.8-0.6c-1.5-0.9-2.5-2.2-2.9-3.9S-157.4,411.1-156.6,409.6z
			 M-155.6,410.2c-0.7,1.2-0.8,2.5-0.5,3.9c0.4,1.4,1.2,2.5,2.3,3.2c1.2,0.7,2.5,0.9,3.9,0.5s2.4-1.2,3.1-2.4
			c0.7-1.2,0.8-2.5,0.5-3.9c-0.4-1.4-1.2-2.5-2.4-3.2c-1.2-0.7-2.5-0.9-3.9-0.5C-153.9,408.2-154.9,409-155.6,410.2z"/>
		<path class="st1" d="M-137.2,402.7l1.1-0.3l2.1,7.9c0.3,1.3,0.2,2.4-0.4,3.4c-0.6,1-1.5,1.7-2.7,2c-1.2,0.3-2.3,0.2-3.3-0.4
			s-1.7-1.5-2-2.7l-2.1-7.9l1.1-0.3l2.1,7.9c0.2,0.9,0.7,1.6,1.5,2s1.6,0.5,2.4,0.3c0.9-0.2,1.5-0.7,2-1.4s0.6-1.5,0.3-2.5
			L-137.2,402.7z"/>
		<path class="st1" d="M-122,411.4l-1.4,0.4l-4.6-3.8l-2,0.5l1.3,4.7l-1.2,0.3l-3.2-12l4.5-1.2c1.1-0.3,2.1-0.2,2.8,0.4
			c0.7,0.6,1.2,1.4,1.5,2.4s0.2,1.9-0.1,2.8c-0.3,0.8-1,1.4-2.1,1.7L-122,411.4z M-131.7,402.4l1.3,5l3.2-0.9c1.6-0.4,2-1.7,1.6-3.1
			c-0.4-1.4-1.4-2.3-2.9-1.9L-131.7,402.4z"/>
		<path class="st1" d="M-120.6,398.2l8.8-2.4l0.3,1.1l-3.8,1l2.9,10.9l-1.1,0.3l-2.9-10.9l-3.9,1L-120.6,398.2z"/>
		<path class="st1" d="M-98.8,405.2l-1.4,0.4l-4.6-3.8l-2,0.5l1.3,4.7l-1.2,0.3l-3.2-12l4.5-1.2c1.1-0.3,2.1-0.2,2.8,0.4
			c0.7,0.6,1.2,1.4,1.5,2.4s0.2,1.9-0.1,2.8c-0.3,0.8-1,1.4-2.1,1.7L-98.8,405.2z M-108.4,396.2l1.3,5l3.2-0.9
			c1.6-0.4,2-1.7,1.6-3.1s-1.4-2.3-2.9-1.9L-108.4,396.2z"/>
		<path class="st1" d="M-98.6,392.3l3.2,12l-1.1,0.3l-3.2-12L-98.6,392.3z"/>
		<path class="st1" d="M-92.5,403.5l-1.2,0.3l1.4-13.2l1.2-0.3l7.8,10.8l-1.2,0.3l-2.1-2.8l-5.6,1.5L-92.5,403.5z M-87.3,397.6
			l-4-5.5l-0.7,6.8L-87.3,397.6z"/>
		<path class="st1" d="M-84.9,388.6l1.1-0.3l2.9,10.9l5.1-1.4l0.3,1.1l-6.2,1.7L-84.9,388.6z"/>
		<path class="st1" d="M-147.6,445.2l-2,0.5l-14.7-14l4.5,16.7l-1.9,0.5l-5.3-20l2.1-0.6l14.5,13.9l-4.4-16.6l1.9-0.5L-147.6,445.2z
			"/>
		<path class="st1" d="M-145.6,426.2c1.4-2.5,3.5-4.1,6.3-4.9c2.8-0.8,5.5-0.4,7.9,1.1c2.5,1.5,4.1,3.6,4.9,6.5c0.8,2.8,0.4,5.5-1,8
			s-3.5,4.1-6.3,4.9c-2.8,0.8-5.5,0.4-7.9-1.1c-2.5-1.5-4.1-3.6-4.8-6.5C-147.3,431.4-147,428.7-145.6,426.2z M-143.8,427.2
			c-1.1,2-1.4,4.2-0.8,6.5s1.9,4.1,3.9,5.3c2,1.2,4.2,1.5,6.4,0.9c2.3-0.6,4-1.9,5.2-4c1.1-2,1.4-4.2,0.8-6.5
			c-0.6-2.3-1.9-4.1-3.9-5.3c-2-1.2-4.2-1.5-6.4-0.9C-141,423.8-142.7,425.2-143.8,427.2z"/>
		<path class="st1" d="M-105.1,412.4l2-0.5l-1.4,21.8l-1.8,0.5l-7.5-12.3l-0.3,14.4l-1.8,0.5l-12.1-18.2l2-0.5l10.1,15.5l0.3-15.4
			l1.4-0.4l8,13.2L-105.1,412.4z"/>
	</g>
	
		<rect x="-208.4" y="392.4" transform="matrix(-0.9659 0.2588 -0.2588 -0.9659 -180.1115 810.488)" class="st1" width="130" height="2"/>
</g>
</svg>
