<?xml version="1.0" encoding="utf-8"?>
<!-- Generator: Adobe Illustrator 19.1.0, SVG Export Plug-In . SVG Version: 6.00 Build 0)  -->
<svg version="1.1" id="Layer_1" xmlns="http://www.w3.org/2000/svg" xmlns:xlink="http://www.w3.org/1999/xlink" x="0px" y="0px"
	 viewBox="0 0 162.8 162.8" style="enable-background:new 0 0 162.8 162.8;" xml:space="preserve">
<style type="text/css">
	.st0{fill:#233F95;}
	.st1{fill:#FFFFFF;}
</style>
<g>
	<circle class="st0" cx="81.4" cy="81.4" r="81.4"/>
	<g>
		<path class="st1" d="M29.7,58.2l4.8-1.3l5.8,21.7l-4.8,1.3l-2.3-8.5l-8.6,2.3l2.3,8.5l-4.8,1.3l-5.8-21.7l4.8-1.3l2.4,9.1l8.6-2.3
			L29.7,58.2z"/>
		<path class="st1" d="M49.2,70.2c1.1,0.8,2.3,1,3.7,0.6c1.4-0.4,2.3-1.2,2.8-2.4c0.5-1.2,0.6-2.7,0.1-4.4l-3.2-12l4.8-1.3l3.3,12.1
			c0.8,3.1,0.6,5.8-0.7,7.9c-1.3,2.2-3.3,3.6-6,4.3c-2.7,0.7-5.2,0.5-7.4-0.8c-2.2-1.2-3.7-3.4-4.6-6.5l-3.3-12.1l4.8-1.3l3.2,12
			C47.3,68.2,48.1,69.5,49.2,70.2z"/>
		<path class="st1" d="M81.2,52.1c0.9,3.5,0.2,6.1-2.3,7.8l7.6,6.3l-6,1.6l-6.7-5.6l-3.4,0.9l1.9,6.9l-4.8,1.3l-5.8-21.7l8.2-2.2
			c3.4-0.9,5.9-1,7.7-0.2C79.3,48,80.5,49.6,81.2,52.1z M76,56.3c0.5-0.7,0.5-1.6,0.2-2.8c-0.3-1.2-0.8-1.9-1.6-2.2
			c-0.7-0.3-1.9-0.2-3.4,0.2l-3.6,1l1.7,6.4l3.5-0.9C74.5,57.5,75.6,57,76,56.3z"/>
		<path class="st1" d="M103,46.3c0.9,3.5,0.2,6.1-2.3,7.8l7.6,6.3l-6,1.6l-6.7-5.6l-3.4,0.9l1.9,6.9l-4.8,1.3l-5.8-21.7l8.2-2.2
			c3.4-0.9,5.9-1,7.7-0.2C101.1,42.1,102.3,43.8,103,46.3z M97.8,50.4c0.5-0.7,0.5-1.6,0.2-2.8c-0.3-1.2-0.8-1.9-1.6-2.2
			c-0.7-0.3-1.9-0.2-3.4,0.2l-3.6,1l1.7,6.4l3.5-0.9C96.3,51.7,97.4,51.1,97.8,50.4z"/>
		<path class="st1" d="M119.8,57.3l-4.8,1.3l-2.3-8.6l-11-11.1l5.2-1.4l6.8,6.8l2.5-9.3l5.2-1.4l-4,15.1L119.8,57.3z"/>
		<path class="st1" d="M122.6,33.3l5.5-1.5l1,3.8l2.1,11.4l-3.7,1l-3.9-10.9L122.6,33.3z M129,54.3c-0.7-0.4-1.1-1-1.3-1.7
			c-0.2-0.8-0.1-1.5,0.3-2.2c0.4-0.7,1-1.1,1.7-1.3c0.8-0.2,1.5-0.1,2.2,0.3c0.7,0.4,1.1,1,1.3,1.7c0.2,0.8,0.1,1.5-0.3,2.2
			c-0.4,0.7-1,1.1-1.7,1.3C130.4,54.7,129.7,54.7,129,54.3z"/>
	</g>
	<g>
		<path class="st1" d="M29.7,109.3l4.8-1.3c1.1,4-0.4,6.6-4,7.6c-1.7,0.5-3.3,0.2-4.8-0.6c-1.5-0.9-2.5-2.2-2.9-3.9
			c-0.5-1.7-0.3-3.3,0.6-4.8c0.8-1.5,2.1-2.5,3.8-2.9c1.4-0.4,2.8-0.3,4.2,0.4l-0.6,1c-1.1-0.5-2.2-0.6-3.3-0.3
			c-1.4,0.4-2.4,1.2-3.1,2.4c-0.7,1.2-0.8,2.5-0.5,3.9c0.4,1.4,1.2,2.5,2.3,3.2c1.2,0.7,2.5,0.9,3.9,0.5c2.6-0.7,3.8-2.6,3.3-5
			l-3.5,0.9L29.7,109.3z"/>
		<path class="st1" d="M34.7,101.4l6.8-1.8l0.3,1.1l-5.7,1.5l1.2,4.4l5-1.3l0.3,1.1l-5,1.3l1.1,4.2l5.9-1.6l0.3,1.1l-7,1.9
			L34.7,101.4z"/>
		<path class="st1" d="M42.8,99.2l8.8-2.4L52,98l-3.9,1l2.9,10.9l-1.1,0.3L47,99.4l-3.9,1L42.8,99.2z"/>
		<path class="st1" d="M62.4,100.9l1.5,5.6l-1.2,0.3l-1.5-5.6L55,96l1.4-0.4l5.1,4.2l2.4-6.2l1.4-0.4L62.4,100.9z"/>
		<path class="st1" d="M67.4,94.4c0.8-1.5,2.1-2.5,3.8-2.9c1.7-0.5,3.3-0.2,4.8,0.6c1.5,0.9,2.5,2.2,2.9,3.9
			c0.5,1.7,0.3,3.3-0.6,4.8c-0.8,1.5-2.1,2.5-3.8,2.9c-1.7,0.5-3.3,0.2-4.8-0.6c-1.5-0.9-2.5-2.2-2.9-3.9
			C66.4,97.5,66.6,95.9,67.4,94.4z M68.4,95c-0.7,1.2-0.8,2.5-0.5,3.9c0.4,1.4,1.2,2.5,2.3,3.2c1.2,0.7,2.5,0.9,3.9,0.5
			c1.4-0.4,2.4-1.2,3.1-2.4c0.7-1.2,0.8-2.5,0.5-3.9c-0.4-1.4-1.2-2.5-2.4-3.2c-1.2-0.7-2.5-0.9-3.9-0.5C70.1,93,69.1,93.8,68.4,95z
			"/>
		<path class="st1" d="M86.8,87.5l1.1-0.3l2.1,7.9c0.3,1.3,0.2,2.4-0.4,3.4c-0.6,1-1.5,1.7-2.7,2c-1.2,0.3-2.3,0.2-3.3-0.4
			c-1-0.6-1.7-1.5-2-2.7l-2.1-7.9l1.1-0.3l2.1,7.9c0.2,0.9,0.7,1.6,1.5,2c0.8,0.4,1.6,0.5,2.4,0.3c0.9-0.2,1.5-0.7,2-1.4
			c0.5-0.7,0.6-1.5,0.3-2.5L86.8,87.5z"/>
		<path class="st1" d="M102,96.2l-1.4,0.4L96,92.8l-2,0.5l1.3,4.7l-1.2,0.3l-3.2-12l4.5-1.2c1.1-0.3,2.1-0.2,2.8,0.4
			c0.7,0.6,1.2,1.4,1.5,2.4c0.3,1,0.2,1.9-0.1,2.8c-0.3,0.8-1,1.4-2.1,1.7L102,96.2z M92.3,87.2l1.3,5l3.2-0.9
			c1.6-0.4,2-1.7,1.6-3.1s-1.4-2.3-2.9-1.9L92.3,87.2z"/>
		<path class="st1" d="M103.4,83l8.8-2.4l0.3,1.1l-3.8,1l2.9,10.9l-1.1,0.3l-2.9-10.9l-3.9,1L103.4,83z"/>
		<path class="st1" d="M125.2,90l-1.4,0.4l-4.6-3.8l-2,0.5l1.3,4.7l-1.2,0.3l-3.2-12l4.5-1.2c1.1-0.3,2.1-0.2,2.8,0.4
			c0.7,0.6,1.2,1.4,1.5,2.4c0.3,1,0.2,1.9-0.1,2.8c-0.3,0.8-1,1.4-2.1,1.7L125.2,90z M115.6,81l1.3,5l3.2-0.9c1.6-0.4,2-1.7,1.6-3.1
			c-0.4-1.4-1.4-2.3-2.9-1.9L115.6,81z"/>
		<path class="st1" d="M125.4,77.1l3.2,12l-1.1,0.3l-3.2-12L125.4,77.1z"/>
		<path class="st1" d="M131.5,88.3l-1.2,0.3l1.4-13.2l1.2-0.3l7.8,10.8l-1.2,0.3l-2.1-2.8l-5.6,1.5L131.5,88.3z M136.7,82.4l-4-5.5
			l-0.7,6.8L136.7,82.4z"/>
		<path class="st1" d="M139.1,73.4l1.1-0.3l2.9,10.9l5.1-1.4l0.3,1.1l-6.2,1.7L139.1,73.4z"/>
		<path class="st1" d="M76.4,130l-2,0.5l-14.7-14l4.5,16.7l-1.9,0.5l-5.3-20l2.1-0.6l14.5,13.9l-4.4-16.6l1.9-0.5L76.4,130z"/>
		<path class="st1" d="M78.4,111c1.4-2.5,3.5-4.1,6.3-4.9s5.5-0.4,7.9,1.1c2.5,1.5,4.1,3.6,4.9,6.5c0.8,2.8,0.4,5.5-1,8
			c-1.4,2.5-3.5,4.1-6.3,4.9s-5.5,0.4-7.9-1.1c-2.5-1.5-4.1-3.6-4.8-6.5C76.7,116.2,77,113.5,78.4,111z M80.2,112
			c-1.1,2-1.4,4.2-0.8,6.5c0.6,2.3,1.9,4.1,3.9,5.3c2,1.2,4.2,1.5,6.4,0.9c2.3-0.6,4-1.9,5.2-4c1.1-2,1.4-4.2,0.8-6.5
			c-0.6-2.3-1.9-4.1-3.9-5.3c-2-1.2-4.2-1.5-6.4-0.9C83,108.6,81.3,110,80.2,112z"/>
		<path class="st1" d="M118.9,97.2l2-0.5l-1.4,21.8l-1.8,0.5l-7.5-12.3l-0.3,14.4l-1.8,0.5L96,103.4l2-0.5l10.1,15.5l0.3-15.4
			l1.4-0.4l8,13.2L118.9,97.2z"/>
	</g>
	<rect x="15.6" y="77.2" transform="matrix(0.9659 -0.2588 0.2588 0.9659 -17.4944 23.5144)" class="st1" width="130" height="2"/>
</g>
</svg>
